<?xml version="1.0" encoding="UTF-8" standalone="no"?>
<!-- Generator: Adobe Illustrator 19.0.0, SVG Export Plug-In . SVG Version: 6.00 Build 0)  -->

<svg
   xmlns:dc="http://purl.org/dc/elements/1.1/"
   xmlns:cc="http://creativecommons.org/ns#"
   xmlns:rdf="http://www.w3.org/1999/02/22-rdf-syntax-ns#"
   xmlns:svg="http://www.w3.org/2000/svg"
   xmlns="http://www.w3.org/2000/svg"
   xmlns:sodipodi="http://sodipodi.sourceforge.net/DTD/sodipodi-0.dtd"
   xmlns:inkscape="http://www.inkscape.org/namespaces/inkscape"
   version="1.1"
   id="Capa_1"
   x="0px"
   y="0px"
   viewBox="0 0 512 512"
   style="enable-background:new 0 0 512 512;"
   xml:space="preserve"
   sodipodi:docname="servidor.svg"
   inkscape:version="0.92.3 (2405546, 2018-03-11)"><metadata
   id="metadata2088"><rdf:RDF><cc:Work
       rdf:about=""><dc:format>image/svg+xml</dc:format><dc:type
         rdf:resource="http://purl.org/dc/dcmitype/StillImage" /></cc:Work></rdf:RDF></metadata><defs
   id="defs2086" /><sodipodi:namedview
   pagecolor="#ffffff"
   bordercolor="#666666"
   borderopacity="1"
   objecttolerance="10"
   gridtolerance="10"
   guidetolerance="10"
   inkscape:pageopacity="0"
   inkscape:pageshadow="2"
   inkscape:window-width="1309"
   inkscape:window-height="713"
   id="namedview2084"
   showgrid="false"
   inkscape:zoom="0.4609375"
   inkscape:cx="256"
   inkscape:cy="256"
   inkscape:window-x="57"
   inkscape:window-y="27"
   inkscape:window-maximized="1"
   inkscape:current-layer="Capa_1" />
<g
   id="g2051"
   style="fill:#2a7824;fill-opacity:1">
	<g
   id="g2049"
   style="fill:#2a7824;fill-opacity:1">
		<g
   id="g2047"
   style="fill:#2a7824;fill-opacity:1">
			<path
   d="M486.4,170.664H375.927c9.492-5.194,15.733-14.815,16.606-25.6V76.798c0-39.253-98.731-59.733-196.267-59.733     S0,37.544,0,76.798v68.267c0,13.193,10.761,24.619,31.872,34.133C10.761,188.712,0,200.147,0,213.331v68.267     c0,13.193,10.761,24.619,31.872,34.133C10.761,325.246,0,336.68,0,349.864v68.267c0,39.253,98.731,59.733,196.267,59.733     c46.513,0.664,92.911-4.81,137.993-16.282c14.035,12.272,29.29,23.074,45.525,32.239c2.614,1.485,5.817,1.485,8.431,0     C510.592,424.369,512,310.432,512,305.611V196.264C512,182.126,500.539,170.664,486.4,170.664z M196.267,34.131     c109.389,0,179.2,25.267,179.2,42.667s-69.811,42.667-179.2,42.667s-179.2-25.267-179.2-42.667S86.878,34.131,196.267,34.131z      M17.067,145.064v-42.317c32.427,22.263,106.129,33.783,179.2,33.783s146.773-11.52,179.2-33.783v42.317     c0,6.042-10.752,16.324-40.713,25.6H281.6c-9.598,0.034-18.366,5.447-22.699,14.012c-20.412,1.954-41.412,3.055-62.635,3.055     c-46.347,0.805-92.582-4.815-137.387-16.7C28.015,161.662,17.067,151.191,17.067,145.064z M56.653,188.107     c45.58,11.791,92.538,17.405,139.614,16.691c20.207,0,40.192-1.058,59.733-2.799v51.26c-18.842,1.783-38.844,2.739-59.733,2.739     c-109.389,0-179.2-25.267-179.2-42.667C17.067,207.358,27.605,197.28,56.653,188.107z M17.067,281.598v-42.317     c32.427,22.263,106.129,33.783,179.2,33.783c20.83,0,40.832-0.93,59.733-2.662v35.209c0.103,5.243,0.522,10.475,1.254,15.667     c-19.772,1.869-40.107,2.987-60.988,2.987c-46.347,0.805-92.582-4.815-137.387-16.7     C28.015,298.195,17.067,287.725,17.067,281.598z M56.653,324.64c45.58,11.791,92.538,17.405,139.614,16.691     c21.845,0,43.247-1.178,64-3.174c3.766,17.001,9.493,33.507,17.067,49.186c-26.882,3.477-53.961,5.21-81.067,5.188     c-109.389,0-179.2-25.267-179.2-42.667C17.067,343.891,27.605,333.813,56.653,324.64z M196.267,460.798     c-109.389,0-179.2-25.267-179.2-42.667v-42.317c32.427,22.263,106.129,33.783,179.2,33.783     c29.992,0.051,59.95-2.016,89.651-6.187c9.473,16.119,20.853,31.037,33.894,44.433     C279.267,456.906,237.81,461.253,196.267,460.798z M494.933,305.602c0,4.361-1.647,106.385-110.933,170.94     c-35.669-20.34-65.213-49.895-85.538-85.572c-0.277-0.712-0.654-1.381-1.118-1.988c-10.369-18.932-17.695-39.378-21.709-60.587     c0-0.102,0-0.196,0-0.299c0-0.102-0.145-0.367-0.179-0.572c-1.382-7.229-2.181-14.557-2.389-21.914V196.264     c0-4.713,3.82-8.533,8.533-8.533h204.8c4.713,0,8.533,3.82,8.533,8.533V305.602z"
   id="path2039"
   style="fill:#2a7824;fill-opacity:1" />
			<path
   d="M460.8,204.798c-4.713,0-8.533,3.82-8.533,8.533s3.821,8.533,8.533,8.533v83.627c-0.051,3.217-2.176,79.548-81.604,133.7     c-2.612,1.677-4.108,4.641-3.904,7.739s2.073,5.841,4.882,7.163c2.809,1.322,6.115,1.013,8.631-0.805     c86.656-59.051,89.003-143.957,89.062-147.678v-83.746C477.867,212.439,470.226,204.798,460.8,204.798z"
   id="path2041"
   style="fill:#2a7824;fill-opacity:1" />
			<path
   d="M307.2,305.611v-83.746h93.867c4.713,0,8.533-3.82,8.533-8.533s-3.82-8.533-8.533-8.533H307.2     c-9.426,0-17.067,7.641-17.067,17.067v83.746c2.396,34.912,14.81,68.392,35.755,96.427c2.766,3.817,8.104,4.669,11.921,1.903     c3.817-2.766,4.669-8.104,1.903-11.921C320.929,366.866,309.656,336.906,307.2,305.611z"
   id="path2043"
   style="fill:#2a7824;fill-opacity:1" />
			<path
   d="M441.233,265.965c-3.332-3.331-8.734-3.331-12.066,0l-63.3,63.3l-9.967-9.967c-3.348-3.234-8.671-3.188-11.962,0.104     c-3.292,3.292-3.338,8.614-0.104,11.962l16,16c3.332,3.331,8.734,3.331,12.066,0l69.333-69.333     C444.564,274.699,444.564,269.297,441.233,265.965z"
   id="path2045"
   style="fill:#2a7824;fill-opacity:1" />
		</g>
	</g>
</g>
<g
   id="g2053">
</g>
<g
   id="g2055">
</g>
<g
   id="g2057">
</g>
<g
   id="g2059">
</g>
<g
   id="g2061">
</g>
<g
   id="g2063">
</g>
<g
   id="g2065">
</g>
<g
   id="g2067">
</g>
<g
   id="g2069">
</g>
<g
   id="g2071">
</g>
<g
   id="g2073">
</g>
<g
   id="g2075">
</g>
<g
   id="g2077">
</g>
<g
   id="g2079">
</g>
<g
   id="g2081">
</g>
<path
   style="opacity:1;fill:#2a7824;fill-opacity:1;stroke-width:2.16949153"
   d="M 135.15932,115.8049 C 69.886256,108.61559 19.091525,91.545884 19.091525,76.8 c 0,-12.770009 36.654399,-27.006811 93.288135,-36.233708 33.01057,-5.378158 134.44372,-5.350706 168.45026,0.04559 32.98022,5.233438 61.79503,13.231237 77.14334,21.411801 21.42588,11.419878 21.41733,18.137312 -0.0375,29.572682 -15.04087,8.016653 -44.29134,16.096115 -76.33573,21.085155 -26.54928,4.13349 -119.30735,6.1119 -146.44068,3.12338 z"
   id="path2633"
   inkscape:connector-curvature="0" /><path
   style="opacity:1;fill:#aaeba4;fill-opacity:1;stroke-width:2.16949153"
   d="M 117.13786,112.68272 C 59.06025,103.14485 21.261017,89.030676 21.261017,76.882445 c 0,-14.118454 53.717458,-31.90651 112.812193,-37.356748 34.8219,-3.211582 129.98925,-1.048685 155.12001,3.525458 28.74051,5.231169 51.72929,11.950401 66.66314,19.484514 22.56857,11.385808 22.42957,17.286361 -0.67801,28.779971 -15.40947,7.664601 -38.51919,14.22446 -68.15462,19.34619 -27.54851,4.76105 -144.71383,6.1548 -169.88587,2.02089 z"
   id="path2635"
   inkscape:connector-curvature="0" /><path
   style="opacity:1;fill:#aaeba4;fill-opacity:1;stroke-width:2.16949153"
   d="M 148.17627,185.13924 C 95.950935,181.07771 44.451224,168.32495 25.350781,154.72423 c -6.216019,-4.42619 -6.259256,-4.61366 -6.259256,-27.13892 v -22.68195 l 5.039958,3.30231 c 7.932706,5.19771 35.164131,14.09215 56.660351,18.50663 37.466146,7.69408 61.900646,9.65682 118.367486,9.50803 45.37989,-0.11958 60.85146,-0.99326 86.08998,-4.86154 34.35787,-5.26599 62.81876,-12.83773 78.91606,-20.99485 l 10.72278,-5.43364 v 20.35414 c 0,24.61236 -2.1002,28.16303 -22.12047,37.39766 -12.74808,5.88024 -15.9581,6.38238 -47.30326,7.39956 -33.94421,1.10151 -41.04097,2.70304 -45.24193,10.20973 -3.39332,6.06352 -63.16236,8.64952 -112.04621,4.84785 z"
   id="path2637"
   inkscape:connector-curvature="0" /><path
   style="opacity:1;fill:#aaeba4;fill-opacity:1;stroke-width:2.16949153"
   d="M 136.24407,252.362 C 73.333934,246.40873 19.091525,228.40516 19.091525,213.47797 c 0,-5.36258 8.27871,-12.1197 22.618824,-18.46158 l 12.812338,-5.66622 27.301367,5.42733 c 43.355196,8.61873 67.109356,10.496 122.558906,9.68572 l 51.18533,-0.74797 -10e-4,24.09773 -0.001,24.09772 -13.33519,1.3938 c -17.59877,1.83944 -82.70755,1.26045 -105.98684,-0.9425 z"
   id="path2639"
   inkscape:connector-curvature="0" /><path
   style="opacity:1;fill:#aaeba4;fill-opacity:1;stroke-width:2.16949153"
   d="M 151.43051,321.95172 C 94.277879,317.41504 44.625111,305.30249 25.639105,291.26553 c -6.536947,-4.83297 -6.54758,-4.87665 -6.54758,-26.89586 v -22.05502 l 10.451136,5.00173 c 37.814816,18.09751 114.532909,28.73485 188.599709,26.15027 l 37.42373,-1.30591 v 23.57596 c 0,22.65842 -0.19005,23.62121 -4.88135,24.73834 -9.48832,2.25939 -76.78114,3.26056 -99.25424,1.47668 z"
   id="path2643"
   inkscape:connector-curvature="0" /><path
   style="opacity:1;fill:#aaeba4;fill-opacity:1;stroke-width:2.16949153"
   d="M 147.09153,390.0343 C 91.893231,385.00221 43.500846,372.84011 26.142373,359.63706 13.888149,350.31635 18.366984,342.19677 41.639801,331.54212 l 12.772782,-5.84757 29.525912,5.72836 c 46.076185,8.9393 67.468905,10.6227 123.582845,9.7248 l 51.63121,-0.82618 6.55117,19.56127 c 3.60314,10.7587 7.25016,21.15584 8.10446,23.10476 1.24232,2.83405 -0.10261,3.80158 -6.71726,4.83254 -10.43775,1.62681 -106.91536,3.40699 -119.99939,2.2142 z"
   id="path2647"
   inkscape:connector-curvature="0" /><path
   style="opacity:1;fill:#aaeba4;fill-opacity:1;stroke-width:2.16949153"
   d="M 160.0076,458.50598 C 105.0944,455.65703 47.152089,442.9194 27.227119,429.31646 l -8.135594,-5.55424 v -22.58747 -22.58746 l 13.730579,6.42531 c 28.93826,13.54185 80.351486,22.61255 142.142856,25.07789 30.22063,1.20574 84.24027,-1.3077 103.50748,-4.81601 6.12417,-1.11514 7.25719,-0.27135 14.71202,10.95644 4.44227,6.69054 11.60014,16.06448 15.90638,20.83097 4.30623,4.76649 7.27711,9.21875 6.60194,9.89391 -4.10611,4.10612 -103.52922,15.21718 -120.87244,13.50814 -1.78983,-0.17638 -17.45556,-1.05745 -34.81274,-1.95796 z"
   id="path2649"
   inkscape:connector-curvature="0" /><path
   style="opacity:1;fill:#2a78ff;fill-opacity:0;stroke-width:2.16949153"
   d="m 369.34678,464.92078 c -5.90141,-3.69966 -20.98068,-17.14942 -33.50949,-29.88837 -25.33148,-25.75632 -37.03606,-43.97216 -49.49606,-77.03077 -9.03195,-23.96339 -10.46059,-41.29268 -9.54479,-115.77791 l 0.62018,-50.44068 h 107.01014 107.01015 l 1.55795,34.77367 c 4.74566,105.92339 -8.19274,152.863 -56.09556,203.51059 -19.55989,20.68065 -45.67957,41.58015 -51.96584,41.58015 -2.67127,0 -9.68528,-3.02701 -15.58668,-6.72668 z m 35.31258,-22.0636 c 21.75013,-17.5362 43.67299,-44.98493 55.74348,-69.7942 15.85374,-32.58521 16.5824,-36.64236 17.94624,-99.924 1.20114,-55.73253 1.15869,-56.47809 -3.55129,-62.37288 -5.03303,-6.29912 -12.38048,-7.68097 -19.78109,-3.72028 -4.92044,2.63334 -5.49767,9.15985 -1.13069,12.78412 4.89982,4.0665 5.78808,19.91483 3.7782,67.41074 -1.79637,42.45051 -2.19086,45.26445 -8.66814,61.83051 -10.00101,25.5782 -22.0822,42.67458 -49.53888,70.10367 -23.92077,23.89671 -27.34501,29.30343 -21.96566,34.68277 4.83658,4.8366 10.23754,2.64971 27.16783,-11.00045 z m -63.73065,-41.04145 c 1.51457,-2.40108 -1.54354,-10.50853 -11.38503,-30.18321 -16.44751,-32.88115 -18.67484,-44.21633 -20.73918,-105.54438 l -1.47879,-43.93221 H 358.46285 409.6 v -8.78069 -8.78069 l -56.33299,0.6451 c -50.70594,0.58066 -56.7196,1.03271 -60.20339,4.52553 -3.50707,3.51616 -3.86722,8.91319 -3.83649,57.49153 0.034,53.76588 1.35597,66.16478 9.01099,84.51598 1.61529,3.87227 2.91703,7.53766 2.89276,8.14531 -0.074,1.85317 17.04619,34.48112 20.00413,38.12423 6.5413,8.05651 15.95948,9.85201 19.7937,3.7735 z m 31.3553,-54.76584 c 3.2221,-1.70832 20.34979,-17.67613 38.06153,-35.48401 28.05006,-28.20232 32.24692,-33.32761 32.54238,-39.74142 0.30008,-6.51415 -0.34667,-7.4424 -5.60728,-8.04803 -5.09831,-0.58693 -10.52692,3.80804 -38.05931,30.81254 l -32.11282,31.49711 -6.41527,-5.24298 c -10.9072,-8.91409 -22.58213,-5.24469 -19.71093,6.19509 1.34965,5.37745 19.08986,23.11774 23.11763,23.11774 1.27914,0 4.96197,-1.39772 8.18407,-3.10604 z"
   id="path2655"
   inkscape:connector-curvature="0" /><path
   style="opacity:1;fill:#2a78ff;fill-opacity:0;stroke-width:2.16949153"
   d="m 369.34678,464.92078 c -5.90141,-3.69966 -20.98068,-17.14942 -33.50949,-29.88837 -25.33148,-25.75632 -37.03606,-43.97216 -49.49606,-77.03077 -9.03195,-23.96339 -10.46059,-41.29268 -9.54479,-115.77791 l 0.62018,-50.44068 h 107.01014 107.01015 l 1.55795,34.77367 c 4.74566,105.92339 -8.19274,152.863 -56.09556,203.51059 -19.55989,20.68065 -45.67957,41.58015 -51.96584,41.58015 -2.67127,0 -9.68528,-3.02701 -15.58668,-6.72668 z m 35.31258,-22.0636 c 21.75013,-17.5362 43.67299,-44.98493 55.74348,-69.7942 15.85374,-32.58521 16.5824,-36.64236 17.94624,-99.924 1.20114,-55.73253 1.15869,-56.47809 -3.55129,-62.37288 -5.03303,-6.29912 -12.38048,-7.68097 -19.78109,-3.72028 -4.92044,2.63334 -5.49767,9.15985 -1.13069,12.78412 4.89982,4.0665 5.78808,19.91483 3.7782,67.41074 -1.79637,42.45051 -2.19086,45.26445 -8.66814,61.83051 -10.00101,25.5782 -22.0822,42.67458 -49.53888,70.10367 -23.92077,23.89671 -27.34501,29.30343 -21.96566,34.68277 4.83658,4.8366 10.23754,2.64971 27.16783,-11.00045 z m -63.73065,-41.04145 c 1.51457,-2.40108 -1.54354,-10.50853 -11.38503,-30.18321 -16.44751,-32.88115 -18.67484,-44.21633 -20.73918,-105.54438 l -1.47879,-43.93221 H 358.46285 409.6 v -8.78069 -8.78069 l -56.33299,0.6451 c -50.70594,0.58066 -56.7196,1.03271 -60.20339,4.52553 -3.50707,3.51616 -3.86722,8.91319 -3.83649,57.49153 0.034,53.76588 1.35597,66.16478 9.01099,84.51598 1.61529,3.87227 2.91703,7.53766 2.89276,8.14531 -0.074,1.85317 17.04619,34.48112 20.00413,38.12423 6.5413,8.05651 15.95948,9.85201 19.7937,3.7735 z m 31.3553,-54.76584 c 3.2221,-1.70832 20.34979,-17.67613 38.06153,-35.48401 28.05006,-28.20232 32.24692,-33.32761 32.54238,-39.74142 0.30008,-6.51415 -0.34667,-7.4424 -5.60728,-8.04803 -5.09831,-0.58693 -10.52692,3.80804 -38.05931,30.81254 l -32.11282,31.49711 -6.41527,-5.24298 c -10.9072,-8.91409 -22.58213,-5.24469 -19.71093,6.19509 1.34965,5.37745 19.08986,23.11774 23.11763,23.11774 1.27914,0 4.96197,-1.39772 8.18407,-3.10604 z"
   id="path2657"
   inkscape:connector-curvature="0" /><path
   style="opacity:0;fill:#2a78ff;fill-opacity:0;stroke-width:2.16949153"
   d="m 369.34678,464.92078 c -5.90141,-3.69966 -20.98068,-17.14942 -33.50949,-29.88837 -25.33148,-25.75632 -37.03606,-43.97216 -49.49606,-77.03077 -9.03195,-23.96339 -10.46059,-41.29268 -9.54479,-115.77791 l 0.62018,-50.44068 h 107.01014 107.01015 l 1.55795,34.77367 c 4.74566,105.92339 -8.19274,152.863 -56.09556,203.51059 -19.55989,20.68065 -45.67957,41.58015 -51.96584,41.58015 -2.67127,0 -9.68528,-3.02701 -15.58668,-6.72668 z m 35.31258,-22.0636 c 21.75013,-17.5362 43.67299,-44.98493 55.74348,-69.7942 15.85374,-32.58521 16.5824,-36.64236 17.94624,-99.924 1.20114,-55.73253 1.15869,-56.47809 -3.55129,-62.37288 -5.03303,-6.29912 -12.38048,-7.68097 -19.78109,-3.72028 -4.92044,2.63334 -5.49767,9.15985 -1.13069,12.78412 4.89982,4.0665 5.78808,19.91483 3.7782,67.41074 -1.79637,42.45051 -2.19086,45.26445 -8.66814,61.83051 -10.00101,25.5782 -22.0822,42.67458 -49.53888,70.10367 -23.92077,23.89671 -27.34501,29.30343 -21.96566,34.68277 4.83658,4.8366 10.23754,2.64971 27.16783,-11.00045 z m -63.73065,-41.04145 c 1.51457,-2.40108 -1.54354,-10.50853 -11.38503,-30.18321 -16.44751,-32.88115 -18.67484,-44.21633 -20.73918,-105.54438 l -1.47879,-43.93221 H 358.46285 409.6 v -8.78069 -8.78069 l -56.33299,0.6451 c -50.70594,0.58066 -56.7196,1.03271 -60.20339,4.52553 -3.50707,3.51616 -3.86722,8.91319 -3.83649,57.49153 0.034,53.76588 1.35597,66.16478 9.01099,84.51598 1.61529,3.87227 2.91703,7.53766 2.89276,8.14531 -0.074,1.85317 17.04619,34.48112 20.00413,38.12423 6.5413,8.05651 15.95948,9.85201 19.7937,3.7735 z m 31.3553,-54.76584 c 3.2221,-1.70832 20.34979,-17.67613 38.06153,-35.48401 28.05006,-28.20232 32.24692,-33.32761 32.54238,-39.74142 0.30008,-6.51415 -0.34667,-7.4424 -5.60728,-8.04803 -5.09831,-0.58693 -10.52692,3.80804 -38.05931,30.81254 l -32.11282,31.49711 -6.41527,-5.24298 c -10.9072,-8.91409 -22.58213,-5.24469 -19.71093,6.19509 1.34965,5.37745 19.08986,23.11774 23.11763,23.11774 1.27914,0 4.96197,-1.39772 8.18407,-3.10604 z"
   id="path2659"
   inkscape:connector-curvature="0" /><path
   style="opacity:0;fill:#2a78ff;fill-opacity:0;stroke-width:2.16949153"
   d="m 369.34678,464.92078 c -5.90141,-3.69966 -20.98068,-17.14942 -33.50949,-29.88837 -25.33148,-25.75632 -37.03606,-43.97216 -49.49606,-77.03077 -9.03195,-23.96339 -10.46059,-41.29268 -9.54479,-115.77791 l 0.62018,-50.44068 h 107.01014 107.01015 l 1.55795,34.77367 c 4.74566,105.92339 -8.19274,152.863 -56.09556,203.51059 -19.55989,20.68065 -45.67957,41.58015 -51.96584,41.58015 -2.67127,0 -9.68528,-3.02701 -15.58668,-6.72668 z m 35.31258,-22.0636 c 21.75013,-17.5362 43.67299,-44.98493 55.74348,-69.7942 15.85374,-32.58521 16.5824,-36.64236 17.94624,-99.924 1.20114,-55.73253 1.15869,-56.47809 -3.55129,-62.37288 -5.03303,-6.29912 -12.38048,-7.68097 -19.78109,-3.72028 -4.92044,2.63334 -5.49767,9.15985 -1.13069,12.78412 4.89982,4.0665 5.78808,19.91483 3.7782,67.41074 -1.79637,42.45051 -2.19086,45.26445 -8.66814,61.83051 -10.00101,25.5782 -22.0822,42.67458 -49.53888,70.10367 -23.92077,23.89671 -27.34501,29.30343 -21.96566,34.68277 4.83658,4.8366 10.23754,2.64971 27.16783,-11.00045 z m -63.73065,-41.04145 c 1.51457,-2.40108 -1.54354,-10.50853 -11.38503,-30.18321 -16.44751,-32.88115 -18.67484,-44.21633 -20.73918,-105.54438 l -1.47879,-43.93221 H 358.46285 409.6 v -8.78069 -8.78069 l -56.33299,0.6451 c -50.70594,0.58066 -56.7196,1.03271 -60.20339,4.52553 -3.50707,3.51616 -3.86722,8.91319 -3.83649,57.49153 0.034,53.76588 1.35597,66.16478 9.01099,84.51598 1.61529,3.87227 2.91703,7.53766 2.89276,8.14531 -0.074,1.85317 17.04619,34.48112 20.00413,38.12423 6.5413,8.05651 15.95948,9.85201 19.7937,3.7735 z m 31.3553,-54.76584 c 3.2221,-1.70832 20.34979,-17.67613 38.06153,-35.48401 28.05006,-28.20232 32.24692,-33.32761 32.54238,-39.74142 0.30008,-6.51415 -0.34667,-7.4424 -5.60728,-8.04803 -5.09831,-0.58693 -10.52692,3.80804 -38.05931,30.81254 l -32.11282,31.49711 -6.41527,-5.24298 c -10.9072,-8.91409 -22.58213,-5.24469 -19.71093,6.19509 1.34965,5.37745 19.08986,23.11774 23.11763,23.11774 1.27914,0 4.96197,-1.39772 8.18407,-3.10604 z"
   id="path2661"
   inkscape:connector-curvature="0" /><path
   style="opacity:0;fill:#2a78ff;fill-opacity:0;stroke-width:2.16949153"
   d="m 369.34678,464.92078 c -5.90141,-3.69966 -20.98068,-17.14942 -33.50949,-29.88837 -25.33148,-25.75632 -37.03606,-43.97216 -49.49606,-77.03077 -9.03195,-23.96339 -10.46059,-41.29268 -9.54479,-115.77791 l 0.62018,-50.44068 h 107.01014 107.01015 l 1.55795,34.77367 c 4.74566,105.92339 -8.19274,152.863 -56.09556,203.51059 -19.55989,20.68065 -45.67957,41.58015 -51.96584,41.58015 -2.67127,0 -9.68528,-3.02701 -15.58668,-6.72668 z m 35.31258,-22.0636 c 21.75013,-17.5362 43.67299,-44.98493 55.74348,-69.7942 15.85374,-32.58521 16.5824,-36.64236 17.94624,-99.924 1.20114,-55.73253 1.15869,-56.47809 -3.55129,-62.37288 -5.03303,-6.29912 -12.38048,-7.68097 -19.78109,-3.72028 -4.92044,2.63334 -5.49767,9.15985 -1.13069,12.78412 4.89982,4.0665 5.78808,19.91483 3.7782,67.41074 -1.79637,42.45051 -2.19086,45.26445 -8.66814,61.83051 -10.00101,25.5782 -22.0822,42.67458 -49.53888,70.10367 -23.92077,23.89671 -27.34501,29.30343 -21.96566,34.68277 4.83658,4.8366 10.23754,2.64971 27.16783,-11.00045 z m -63.73065,-41.04145 c 1.51457,-2.40108 -1.54354,-10.50853 -11.38503,-30.18321 -16.44751,-32.88115 -18.67484,-44.21633 -20.73918,-105.54438 l -1.47879,-43.93221 H 358.46285 409.6 v -8.78069 -8.78069 l -56.33299,0.6451 c -50.70594,0.58066 -56.7196,1.03271 -60.20339,4.52553 -3.50707,3.51616 -3.86722,8.91319 -3.83649,57.49153 0.034,53.76588 1.35597,66.16478 9.01099,84.51598 1.61529,3.87227 2.91703,7.53766 2.89276,8.14531 -0.074,1.85317 17.04619,34.48112 20.00413,38.12423 6.5413,8.05651 15.95948,9.85201 19.7937,3.7735 z m 31.3553,-54.76584 c 3.2221,-1.70832 20.34979,-17.67613 38.06153,-35.48401 28.05006,-28.20232 32.24692,-33.32761 32.54238,-39.74142 0.30008,-6.51415 -0.34667,-7.4424 -5.60728,-8.04803 -5.09831,-0.58693 -10.52692,3.80804 -38.05931,30.81254 l -32.11282,31.49711 -6.41527,-5.24298 c -10.9072,-8.91409 -22.58213,-5.24469 -19.71093,6.19509 1.34965,5.37745 19.08986,23.11774 23.11763,23.11774 1.27914,0 4.96197,-1.39772 8.18407,-3.10604 z"
   id="path2663"
   inkscape:connector-curvature="0" /><path
   style="opacity:0;fill:#2a78ff;fill-opacity:0;stroke-width:2.16949153"
   d="m 369.34678,464.92078 c -5.90141,-3.69966 -20.98068,-17.14942 -33.50949,-29.88837 -25.33148,-25.75632 -37.03606,-43.97216 -49.49606,-77.03077 -9.03195,-23.96339 -10.46059,-41.29268 -9.54479,-115.77791 l 0.62018,-50.44068 h 107.01014 107.01015 l 1.55795,34.77367 c 4.74566,105.92339 -8.19274,152.863 -56.09556,203.51059 -19.55989,20.68065 -45.67957,41.58015 -51.96584,41.58015 -2.67127,0 -9.68528,-3.02701 -15.58668,-6.72668 z m 35.31258,-22.0636 c 21.75013,-17.5362 43.67299,-44.98493 55.74348,-69.7942 15.85374,-32.58521 16.5824,-36.64236 17.94624,-99.924 1.20114,-55.73253 1.15869,-56.47809 -3.55129,-62.37288 -5.03303,-6.29912 -12.38048,-7.68097 -19.78109,-3.72028 -4.92044,2.63334 -5.49767,9.15985 -1.13069,12.78412 4.89982,4.0665 5.78808,19.91483 3.7782,67.41074 -1.79637,42.45051 -2.19086,45.26445 -8.66814,61.83051 -10.00101,25.5782 -22.0822,42.67458 -49.53888,70.10367 -23.92077,23.89671 -27.34501,29.30343 -21.96566,34.68277 4.83658,4.8366 10.23754,2.64971 27.16783,-11.00045 z m -63.73065,-41.04145 c 1.51457,-2.40108 -1.54354,-10.50853 -11.38503,-30.18321 -16.44751,-32.88115 -18.67484,-44.21633 -20.73918,-105.54438 l -1.47879,-43.93221 H 358.46285 409.6 v -8.78069 -8.78069 l -56.33299,0.6451 c -50.70594,0.58066 -56.7196,1.03271 -60.20339,4.52553 -3.50707,3.51616 -3.86722,8.91319 -3.83649,57.49153 0.034,53.76588 1.35597,66.16478 9.01099,84.51598 1.61529,3.87227 2.91703,7.53766 2.89276,8.14531 -0.074,1.85317 17.04619,34.48112 20.00413,38.12423 6.5413,8.05651 15.95948,9.85201 19.7937,3.7735 z m 31.3553,-54.76584 c 3.2221,-1.70832 20.34979,-17.67613 38.06153,-35.48401 28.05006,-28.20232 32.24692,-33.32761 32.54238,-39.74142 0.30008,-6.51415 -0.34667,-7.4424 -5.60728,-8.04803 -5.09831,-0.58693 -10.52692,3.80804 -38.05931,30.81254 l -32.11282,31.49711 -6.41527,-5.24298 c -10.9072,-8.91409 -22.58213,-5.24469 -19.71093,6.19509 1.34965,5.37745 19.08986,23.11774 23.11763,23.11774 1.27914,0 4.96197,-1.39772 8.18407,-3.10604 z"
   id="path2665"
   inkscape:connector-curvature="0" /><path
   style="opacity:0;fill:#2a78ff;fill-opacity:0;stroke-width:2.16949153"
   d="m 369.34678,464.92078 c -5.90141,-3.69966 -20.98068,-17.14942 -33.50949,-29.88837 -25.33148,-25.75632 -37.03606,-43.97216 -49.49606,-77.03077 -9.03195,-23.96339 -10.46059,-41.29268 -9.54479,-115.77791 l 0.62018,-50.44068 h 107.01014 107.01015 l 1.55795,34.77367 c 4.74566,105.92339 -8.19274,152.863 -56.09556,203.51059 -19.55989,20.68065 -45.67957,41.58015 -51.96584,41.58015 -2.67127,0 -9.68528,-3.02701 -15.58668,-6.72668 z m 35.31258,-22.0636 c 21.75013,-17.5362 43.67299,-44.98493 55.74348,-69.7942 15.85374,-32.58521 16.5824,-36.64236 17.94624,-99.924 1.20114,-55.73253 1.15869,-56.47809 -3.55129,-62.37288 -5.03303,-6.29912 -12.38048,-7.68097 -19.78109,-3.72028 -4.92044,2.63334 -5.49767,9.15985 -1.13069,12.78412 4.89982,4.0665 5.78808,19.91483 3.7782,67.41074 -1.79637,42.45051 -2.19086,45.26445 -8.66814,61.83051 -10.00101,25.5782 -22.0822,42.67458 -49.53888,70.10367 -23.92077,23.89671 -27.34501,29.30343 -21.96566,34.68277 4.83658,4.8366 10.23754,2.64971 27.16783,-11.00045 z m -63.73065,-41.04145 c 1.51457,-2.40108 -1.54354,-10.50853 -11.38503,-30.18321 -16.44751,-32.88115 -18.67484,-44.21633 -20.73918,-105.54438 l -1.47879,-43.93221 H 358.46285 409.6 v -8.78069 -8.78069 l -56.33299,0.6451 c -50.70594,0.58066 -56.7196,1.03271 -60.20339,4.52553 -3.50707,3.51616 -3.86722,8.91319 -3.83649,57.49153 0.034,53.76588 1.35597,66.16478 9.01099,84.51598 1.61529,3.87227 2.91703,7.53766 2.89276,8.14531 -0.074,1.85317 17.04619,34.48112 20.00413,38.12423 6.5413,8.05651 15.95948,9.85201 19.7937,3.7735 z m 31.3553,-54.76584 c 3.2221,-1.70832 20.34979,-17.67613 38.06153,-35.48401 28.05006,-28.20232 32.24692,-33.32761 32.54238,-39.74142 0.30008,-6.51415 -0.34667,-7.4424 -5.60728,-8.04803 -5.09831,-0.58693 -10.52692,3.80804 -38.05931,30.81254 l -32.11282,31.49711 -6.41527,-5.24298 c -10.9072,-8.91409 -22.58213,-5.24469 -19.71093,6.19509 1.34965,5.37745 19.08986,23.11774 23.11763,23.11774 1.27914,0 4.96197,-1.39772 8.18407,-3.10604 z"
   id="path2667"
   inkscape:connector-curvature="0" /><path
   style="opacity:0;fill:#2a78ff;fill-opacity:0;stroke-width:2.16949153"
   d="m 369.34678,464.92078 c -5.90141,-3.69966 -20.98068,-17.14942 -33.50949,-29.88837 -25.33148,-25.75632 -37.03606,-43.97216 -49.49606,-77.03077 -9.03195,-23.96339 -10.46059,-41.29268 -9.54479,-115.77791 l 0.62018,-50.44068 h 107.01014 107.01015 l 1.55795,34.77367 c 4.74566,105.92339 -8.19274,152.863 -56.09556,203.51059 -19.55989,20.68065 -45.67957,41.58015 -51.96584,41.58015 -2.67127,0 -9.68528,-3.02701 -15.58668,-6.72668 z m 35.31258,-22.0636 c 21.75013,-17.5362 43.67299,-44.98493 55.74348,-69.7942 15.85374,-32.58521 16.5824,-36.64236 17.94624,-99.924 1.20114,-55.73253 1.15869,-56.47809 -3.55129,-62.37288 -5.03303,-6.29912 -12.38048,-7.68097 -19.78109,-3.72028 -4.92044,2.63334 -5.49767,9.15985 -1.13069,12.78412 4.89982,4.0665 5.78808,19.91483 3.7782,67.41074 -1.79637,42.45051 -2.19086,45.26445 -8.66814,61.83051 -10.00101,25.5782 -22.0822,42.67458 -49.53888,70.10367 -23.92077,23.89671 -27.34501,29.30343 -21.96566,34.68277 4.83658,4.8366 10.23754,2.64971 27.16783,-11.00045 z m -63.73065,-41.04145 c 1.51457,-2.40108 -1.54354,-10.50853 -11.38503,-30.18321 -16.44751,-32.88115 -18.67484,-44.21633 -20.73918,-105.54438 l -1.47879,-43.93221 H 358.46285 409.6 v -8.78069 -8.78069 l -56.33299,0.6451 c -50.70594,0.58066 -56.7196,1.03271 -60.20339,4.52553 -3.50707,3.51616 -3.86722,8.91319 -3.83649,57.49153 0.034,53.76588 1.35597,66.16478 9.01099,84.51598 1.61529,3.87227 2.91703,7.53766 2.89276,8.14531 -0.074,1.85317 17.04619,34.48112 20.00413,38.12423 6.5413,8.05651 15.95948,9.85201 19.7937,3.7735 z m 31.3553,-54.76584 c 3.2221,-1.70832 20.34979,-17.67613 38.06153,-35.48401 28.05006,-28.20232 32.24692,-33.32761 32.54238,-39.74142 0.30008,-6.51415 -0.34667,-7.4424 -5.60728,-8.04803 -5.09831,-0.58693 -10.52692,3.80804 -38.05931,30.81254 l -32.11282,31.49711 -6.41527,-5.24298 c -10.9072,-8.91409 -22.58213,-5.24469 -19.71093,6.19509 1.34965,5.37745 19.08986,23.11774 23.11763,23.11774 1.27914,0 4.96197,-1.39772 8.18407,-3.10604 z"
   id="path2669"
   inkscape:connector-curvature="0" /><path
   style="opacity:0;fill:#ffffff;fill-opacity:0;stroke-width:2.16949153"
   d="m 369.34678,464.92078 c -5.90141,-3.69966 -20.98068,-17.14942 -33.50949,-29.88837 -25.33148,-25.75632 -37.03606,-43.97216 -49.49606,-77.03077 -9.03195,-23.96339 -10.46059,-41.29268 -9.54479,-115.77791 l 0.62018,-50.44068 h 107.01014 107.01015 l 1.55795,34.77367 c 4.74566,105.92339 -8.19274,152.863 -56.09556,203.51059 -19.55989,20.68065 -45.67957,41.58015 -51.96584,41.58015 -2.67127,0 -9.68528,-3.02701 -15.58668,-6.72668 z m 35.31258,-22.0636 c 21.75013,-17.5362 43.67299,-44.98493 55.74348,-69.7942 15.85374,-32.58521 16.5824,-36.64236 17.94624,-99.924 1.20114,-55.73253 1.15869,-56.47809 -3.55129,-62.37288 -5.03303,-6.29912 -12.38048,-7.68097 -19.78109,-3.72028 -4.92044,2.63334 -5.49767,9.15985 -1.13069,12.78412 4.89982,4.0665 5.78808,19.91483 3.7782,67.41074 -1.79637,42.45051 -2.19086,45.26445 -8.66814,61.83051 -10.00101,25.5782 -22.0822,42.67458 -49.53888,70.10367 -23.92077,23.89671 -27.34501,29.30343 -21.96566,34.68277 4.83658,4.8366 10.23754,2.64971 27.16783,-11.00045 z m -63.73065,-41.04145 c 1.51457,-2.40108 -1.54354,-10.50853 -11.38503,-30.18321 -16.44751,-32.88115 -18.67484,-44.21633 -20.73918,-105.54438 l -1.47879,-43.93221 H 358.46285 409.6 v -8.78069 -8.78069 l -56.33299,0.6451 c -50.70594,0.58066 -56.7196,1.03271 -60.20339,4.52553 -3.50707,3.51616 -3.86722,8.91319 -3.83649,57.49153 0.034,53.76588 1.35597,66.16478 9.01099,84.51598 1.61529,3.87227 2.91703,7.53766 2.89276,8.14531 -0.074,1.85317 17.04619,34.48112 20.00413,38.12423 6.5413,8.05651 15.95948,9.85201 19.7937,3.7735 z m 31.3553,-54.76584 c 3.2221,-1.70832 20.34979,-17.67613 38.06153,-35.48401 28.05006,-28.20232 32.24692,-33.32761 32.54238,-39.74142 0.30008,-6.51415 -0.34667,-7.4424 -5.60728,-8.04803 -5.09831,-0.58693 -10.52692,3.80804 -38.05931,30.81254 l -32.11282,31.49711 -6.41527,-5.24298 c -10.9072,-8.91409 -22.58213,-5.24469 -19.71093,6.19509 1.34965,5.37745 19.08986,23.11774 23.11763,23.11774 1.27914,0 4.96197,-1.39772 8.18407,-3.10604 z"
   id="path2671"
   inkscape:connector-curvature="0" /><path
   style="opacity:0;fill:#ffffff;fill-opacity:0;stroke-width:2.16949153"
   d="m 369.34678,464.92078 c -5.90141,-3.69966 -20.98068,-17.14942 -33.50949,-29.88837 -25.33148,-25.75632 -37.03606,-43.97216 -49.49606,-77.03077 -9.03195,-23.96339 -10.46059,-41.29268 -9.54479,-115.77791 l 0.62018,-50.44068 h 107.01014 107.01015 l 1.55795,34.77367 c 4.74566,105.92339 -8.19274,152.863 -56.09556,203.51059 -19.55989,20.68065 -45.67957,41.58015 -51.96584,41.58015 -2.67127,0 -9.68528,-3.02701 -15.58668,-6.72668 z m 35.31258,-22.0636 c 21.75013,-17.5362 43.67299,-44.98493 55.74348,-69.7942 15.85374,-32.58521 16.5824,-36.64236 17.94624,-99.924 1.20114,-55.73253 1.15869,-56.47809 -3.55129,-62.37288 -5.03303,-6.29912 -12.38048,-7.68097 -19.78109,-3.72028 -4.92044,2.63334 -5.49767,9.15985 -1.13069,12.78412 4.89982,4.0665 5.78808,19.91483 3.7782,67.41074 -1.79637,42.45051 -2.19086,45.26445 -8.66814,61.83051 -10.00101,25.5782 -22.0822,42.67458 -49.53888,70.10367 -23.92077,23.89671 -27.34501,29.30343 -21.96566,34.68277 4.83658,4.8366 10.23754,2.64971 27.16783,-11.00045 z m -63.73065,-41.04145 c 1.51457,-2.40108 -1.54354,-10.50853 -11.38503,-30.18321 -16.44751,-32.88115 -18.67484,-44.21633 -20.73918,-105.54438 l -1.47879,-43.93221 H 358.46285 409.6 v -8.78069 -8.78069 l -56.33299,0.6451 c -50.70594,0.58066 -56.7196,1.03271 -60.20339,4.52553 -3.50707,3.51616 -3.86722,8.91319 -3.83649,57.49153 0.034,53.76588 1.35597,66.16478 9.01099,84.51598 1.61529,3.87227 2.91703,7.53766 2.89276,8.14531 -0.074,1.85317 17.04619,34.48112 20.00413,38.12423 6.5413,8.05651 15.95948,9.85201 19.7937,3.7735 z m 31.3553,-54.76584 c 3.2221,-1.70832 20.34979,-17.67613 38.06153,-35.48401 28.05006,-28.20232 32.24692,-33.32761 32.54238,-39.74142 0.30008,-6.51415 -0.34667,-7.4424 -5.60728,-8.04803 -5.09831,-0.58693 -10.52692,3.80804 -38.05931,30.81254 l -32.11282,31.49711 -6.41527,-5.24298 c -10.9072,-8.91409 -22.58213,-5.24469 -19.71093,6.19509 1.34965,5.37745 19.08986,23.11774 23.11763,23.11774 1.27914,0 4.96197,-1.39772 8.18407,-3.10604 z"
   id="path2673"
   inkscape:connector-curvature="0" /><path
   style="opacity:0;fill:#ffffff;fill-opacity:0;stroke-width:2.16949153"
   d="m 369.34678,464.92078 c -5.90141,-3.69966 -20.98068,-17.14942 -33.50949,-29.88837 -25.33148,-25.75632 -37.03606,-43.97216 -49.49606,-77.03077 -9.03195,-23.96339 -10.46059,-41.29268 -9.54479,-115.77791 l 0.62018,-50.44068 h 107.01014 107.01015 l 1.55795,34.77367 c 4.74566,105.92339 -8.19274,152.863 -56.09556,203.51059 -19.55989,20.68065 -45.67957,41.58015 -51.96584,41.58015 -2.67127,0 -9.68528,-3.02701 -15.58668,-6.72668 z m 35.31258,-22.0636 c 21.75013,-17.5362 43.67299,-44.98493 55.74348,-69.7942 15.85374,-32.58521 16.5824,-36.64236 17.94624,-99.924 1.20114,-55.73253 1.15869,-56.47809 -3.55129,-62.37288 -5.03303,-6.29912 -12.38048,-7.68097 -19.78109,-3.72028 -4.92044,2.63334 -5.49767,9.15985 -1.13069,12.78412 4.89982,4.0665 5.78808,19.91483 3.7782,67.41074 -1.79637,42.45051 -2.19086,45.26445 -8.66814,61.83051 -10.00101,25.5782 -22.0822,42.67458 -49.53888,70.10367 -23.92077,23.89671 -27.34501,29.30343 -21.96566,34.68277 4.83658,4.8366 10.23754,2.64971 27.16783,-11.00045 z m -63.73065,-41.04145 c 1.51457,-2.40108 -1.54354,-10.50853 -11.38503,-30.18321 -16.44751,-32.88115 -18.67484,-44.21633 -20.73918,-105.54438 l -1.47879,-43.93221 H 358.46285 409.6 v -8.78069 -8.78069 l -56.33299,0.6451 c -50.70594,0.58066 -56.7196,1.03271 -60.20339,4.52553 -3.50707,3.51616 -3.86722,8.91319 -3.83649,57.49153 0.034,53.76588 1.35597,66.16478 9.01099,84.51598 1.61529,3.87227 2.91703,7.53766 2.89276,8.14531 -0.074,1.85317 17.04619,34.48112 20.00413,38.12423 6.5413,8.05651 15.95948,9.85201 19.7937,3.7735 z m 31.3553,-54.76584 c 3.2221,-1.70832 20.34979,-17.67613 38.06153,-35.48401 28.05006,-28.20232 32.24692,-33.32761 32.54238,-39.74142 0.30008,-6.51415 -0.34667,-7.4424 -5.60728,-8.04803 -5.09831,-0.58693 -10.52692,3.80804 -38.05931,30.81254 l -32.11282,31.49711 -6.41527,-5.24298 c -10.9072,-8.91409 -22.58213,-5.24469 -19.71093,6.19509 1.34965,5.37745 19.08986,23.11774 23.11763,23.11774 1.27914,0 4.96197,-1.39772 8.18407,-3.10604 z"
   id="path2675"
   inkscape:connector-curvature="0" /><path
   style="opacity:0;fill:#ffffff;fill-opacity:0;stroke-width:2.16949153"
   d="m 369.34678,464.92078 c -5.90141,-3.69966 -20.98068,-17.14942 -33.50949,-29.88837 -25.33148,-25.75632 -37.03606,-43.97216 -49.49606,-77.03077 -9.03195,-23.96339 -10.46059,-41.29268 -9.54479,-115.77791 l 0.62018,-50.44068 h 107.01014 107.01015 l 1.55795,34.77367 c 4.74566,105.92339 -8.19274,152.863 -56.09556,203.51059 -19.55989,20.68065 -45.67957,41.58015 -51.96584,41.58015 -2.67127,0 -9.68528,-3.02701 -15.58668,-6.72668 z m 35.31258,-22.0636 c 21.75013,-17.5362 43.67299,-44.98493 55.74348,-69.7942 15.85374,-32.58521 16.5824,-36.64236 17.94624,-99.924 1.20114,-55.73253 1.15869,-56.47809 -3.55129,-62.37288 -5.03303,-6.29912 -12.38048,-7.68097 -19.78109,-3.72028 -4.92044,2.63334 -5.49767,9.15985 -1.13069,12.78412 4.89982,4.0665 5.78808,19.91483 3.7782,67.41074 -1.79637,42.45051 -2.19086,45.26445 -8.66814,61.83051 -10.00101,25.5782 -22.0822,42.67458 -49.53888,70.10367 -23.92077,23.89671 -27.34501,29.30343 -21.96566,34.68277 4.83658,4.8366 10.23754,2.64971 27.16783,-11.00045 z m -63.73065,-41.04145 c 1.51457,-2.40108 -1.54354,-10.50853 -11.38503,-30.18321 -16.44751,-32.88115 -18.67484,-44.21633 -20.73918,-105.54438 l -1.47879,-43.93221 H 358.46285 409.6 v -8.78069 -8.78069 l -56.33299,0.6451 c -50.70594,0.58066 -56.7196,1.03271 -60.20339,4.52553 -3.50707,3.51616 -3.86722,8.91319 -3.83649,57.49153 0.034,53.76588 1.35597,66.16478 9.01099,84.51598 1.61529,3.87227 2.91703,7.53766 2.89276,8.14531 -0.074,1.85317 17.04619,34.48112 20.00413,38.12423 6.5413,8.05651 15.95948,9.85201 19.7937,3.7735 z m 31.3553,-54.76584 c 3.2221,-1.70832 20.34979,-17.67613 38.06153,-35.48401 28.05006,-28.20232 32.24692,-33.32761 32.54238,-39.74142 0.30008,-6.51415 -0.34667,-7.4424 -5.60728,-8.04803 -5.09831,-0.58693 -10.52692,3.80804 -38.05931,30.81254 l -32.11282,31.49711 -6.41527,-5.24298 c -10.9072,-8.91409 -22.58213,-5.24469 -19.71093,6.19509 1.34965,5.37745 19.08986,23.11774 23.11763,23.11774 1.27914,0 4.96197,-1.39772 8.18407,-3.10604 z"
   id="path2677"
   inkscape:connector-curvature="0" /><path
   style="opacity:0;fill:#ffffff;fill-opacity:0;stroke-width:2.16949153"
   d="m 369.34678,464.92078 c -5.90141,-3.69966 -20.98068,-17.14942 -33.50949,-29.88837 -25.33148,-25.75632 -37.03606,-43.97216 -49.49606,-77.03077 -9.03195,-23.96339 -10.46059,-41.29268 -9.54479,-115.77791 l 0.62018,-50.44068 h 107.01014 107.01015 l 1.55795,34.77367 c 4.74566,105.92339 -8.19274,152.863 -56.09556,203.51059 -19.55989,20.68065 -45.67957,41.58015 -51.96584,41.58015 -2.67127,0 -9.68528,-3.02701 -15.58668,-6.72668 z m 35.31258,-22.0636 c 21.75013,-17.5362 43.67299,-44.98493 55.74348,-69.7942 15.85374,-32.58521 16.5824,-36.64236 17.94624,-99.924 1.20114,-55.73253 1.15869,-56.47809 -3.55129,-62.37288 -5.03303,-6.29912 -12.38048,-7.68097 -19.78109,-3.72028 -4.92044,2.63334 -5.49767,9.15985 -1.13069,12.78412 4.89982,4.0665 5.78808,19.91483 3.7782,67.41074 -1.79637,42.45051 -2.19086,45.26445 -8.66814,61.83051 -10.00101,25.5782 -22.0822,42.67458 -49.53888,70.10367 -23.92077,23.89671 -27.34501,29.30343 -21.96566,34.68277 4.83658,4.8366 10.23754,2.64971 27.16783,-11.00045 z m -63.73065,-41.04145 c 1.51457,-2.40108 -1.54354,-10.50853 -11.38503,-30.18321 -16.44751,-32.88115 -18.67484,-44.21633 -20.73918,-105.54438 l -1.47879,-43.93221 H 358.46285 409.6 v -8.78069 -8.78069 l -56.33299,0.6451 c -50.70594,0.58066 -56.7196,1.03271 -60.20339,4.52553 -3.50707,3.51616 -3.86722,8.91319 -3.83649,57.49153 0.034,53.76588 1.35597,66.16478 9.01099,84.51598 1.61529,3.87227 2.91703,7.53766 2.89276,8.14531 -0.074,1.85317 17.04619,34.48112 20.00413,38.12423 6.5413,8.05651 15.95948,9.85201 19.7937,3.7735 z m 31.3553,-54.76584 c 3.2221,-1.70832 20.34979,-17.67613 38.06153,-35.48401 28.05006,-28.20232 32.24692,-33.32761 32.54238,-39.74142 0.30008,-6.51415 -0.34667,-7.4424 -5.60728,-8.04803 -5.09831,-0.58693 -10.52692,3.80804 -38.05931,30.81254 l -32.11282,31.49711 -6.41527,-5.24298 c -10.9072,-8.91409 -22.58213,-5.24469 -19.71093,6.19509 1.34965,5.37745 19.08986,23.11774 23.11763,23.11774 1.27914,0 4.96197,-1.39772 8.18407,-3.10604 z"
   id="path2679"
   inkscape:connector-curvature="0" /><path
   style="opacity:0;fill:#ffffff;fill-opacity:0;stroke-width:2.16949153"
   d="m 369.34678,464.92078 c -5.90141,-3.69966 -20.98068,-17.14942 -33.50949,-29.88837 -25.33148,-25.75632 -37.03606,-43.97216 -49.49606,-77.03077 -9.03195,-23.96339 -10.46059,-41.29268 -9.54479,-115.77791 l 0.62018,-50.44068 h 107.01014 107.01015 l 1.55795,34.77367 c 4.74566,105.92339 -8.19274,152.863 -56.09556,203.51059 -19.55989,20.68065 -45.67957,41.58015 -51.96584,41.58015 -2.67127,0 -9.68528,-3.02701 -15.58668,-6.72668 z m 35.31258,-22.0636 c 21.75013,-17.5362 43.67299,-44.98493 55.74348,-69.7942 15.85374,-32.58521 16.5824,-36.64236 17.94624,-99.924 1.20114,-55.73253 1.15869,-56.47809 -3.55129,-62.37288 -5.03303,-6.29912 -12.38048,-7.68097 -19.78109,-3.72028 -4.92044,2.63334 -5.49767,9.15985 -1.13069,12.78412 4.89982,4.0665 5.78808,19.91483 3.7782,67.41074 -1.79637,42.45051 -2.19086,45.26445 -8.66814,61.83051 -10.00101,25.5782 -22.0822,42.67458 -49.53888,70.10367 -23.92077,23.89671 -27.34501,29.30343 -21.96566,34.68277 4.83658,4.8366 10.23754,2.64971 27.16783,-11.00045 z m -63.73065,-41.04145 c 1.51457,-2.40108 -1.54354,-10.50853 -11.38503,-30.18321 -16.44751,-32.88115 -18.67484,-44.21633 -20.73918,-105.54438 l -1.47879,-43.93221 H 358.46285 409.6 v -8.78069 -8.78069 l -56.33299,0.6451 c -50.70594,0.58066 -56.7196,1.03271 -60.20339,4.52553 -3.50707,3.51616 -3.86722,8.91319 -3.83649,57.49153 0.034,53.76588 1.35597,66.16478 9.01099,84.51598 1.61529,3.87227 2.91703,7.53766 2.89276,8.14531 -0.074,1.85317 17.04619,34.48112 20.00413,38.12423 6.5413,8.05651 15.95948,9.85201 19.7937,3.7735 z m 31.3553,-54.76584 c 3.2221,-1.70832 20.34979,-17.67613 38.06153,-35.48401 28.05006,-28.20232 32.24692,-33.32761 32.54238,-39.74142 0.30008,-6.51415 -0.34667,-7.4424 -5.60728,-8.04803 -5.09831,-0.58693 -10.52692,3.80804 -38.05931,30.81254 l -32.11282,31.49711 -6.41527,-5.24298 c -10.9072,-8.91409 -22.58213,-5.24469 -19.71093,6.19509 1.34965,5.37745 19.08986,23.11774 23.11763,23.11774 1.27914,0 4.96197,-1.39772 8.18407,-3.10604 z"
   id="path2681"
   inkscape:connector-curvature="0" /></svg>