<svg width="80" height="80" viewBox="0 0 80 80" fill="none" xmlns="http://www.w3.org/2000/svg">
<rect x="13" y="15.4444" width="38" height="41.1111" fill="#AAEBA4"/>
<path d="M51.5 16C51.5 16.4044 51.1601 16.9329 50.1739 17.5158C49.2212 18.0789 47.8093 18.6033 46.0209 19.0505C42.4516 19.9428 37.4943 20.5 32 20.5C26.5057 20.5 21.5484 19.9428 17.9791 19.0505C16.1907 18.6033 14.7788 18.0789 13.8261 17.5158C12.8399 16.9329 12.5 16.4044 12.5 16C12.5 15.5956 12.8399 15.0671 13.8261 14.4842C14.7788 13.9211 16.1907 13.3967 17.9791 12.9495C21.5484 12.0572 26.5057 11.5 32 11.5C37.4943 11.5 42.4516 12.0572 46.0209 12.9495C47.8093 13.3967 49.2212 13.9211 50.1739 14.4842C51.1601 15.0671 51.5 15.5956 51.5 16Z" fill="#AAEBA4" stroke="#2A7824"/>
<ellipse cx="32" cy="56" rx="20" ry="5" fill="#AAEBA4"/>
<path d="M51.5 26C51.5 28.7614 43.0457 31 32 31C20.9543 31 12.5 29.317 12.5 26.5556" stroke="#2A7824"/>
<path d="M51.5 36C51.5 38.7614 43.0457 41 32 41C20.9543 41 12.5 39.317 12.5 36.5556" stroke="#2A7824"/>
<path d="M51.5 46C51.5 48.7614 43.0457 51 32 51C20.9543 51 12.5 49.317 12.5 46.5556" stroke="#2A7824"/>
<path d="M51.5 56C51.5 58.7614 43.0457 61 32 61C20.9543 61 12.5 59.317 12.5 56.5556" stroke="#2A7824"/>
<line x1="12.5" y1="15.4444" x2="12.5" y2="56.5556" stroke="#2A7824"/>
<line x1="51.5" y1="15.4444" x2="51.5" y2="56.5556" stroke="#2A7824"/>
<path d="M62.9442 60.8887C60.9135 63.5449 58.1396 65.6954 54.0045 68.0611C49.3357 65.2935 46.4017 62.9068 44.4198 60.2278C42.415 57.5178 41.3535 54.4671 40.5 50.3166L40.5 33.5H67.5V50.3054C66.3326 54.933 65.0065 58.1913 62.9442 60.8887Z" fill="#F0F0F0" stroke="#2A7824"/>
<rect width="1.12227" height="7.31647" rx="0.561136" transform="matrix(0.716397 -0.697692 0.716397 0.697692 47 49.2123)" fill="#2A7824"/>
<rect width="1.12227" height="13.4673" rx="0.561136" transform="matrix(0.716397 0.697692 -0.716397 0.697692 61.196 44)" fill="#2A7824"/>
<path d="M55 64C61.1914 59.2014 62.551 56.4507 64.5 50.5" stroke="#2A7824"/>
<path d="M43.5 50.2515V37H55" stroke="#2A7824"/>
<path d="M43.5 50C44.8837 55.992 46.3698 58.4272 50 61.5" stroke="#2A7824"/>
</svg>
