<?xml version="1.0" encoding="UTF-8" standalone="no"?>
<!-- Generator: Adobe Illustrator 19.0.0, SVG Export Plug-In . SVG Version: 6.00 Build 0)  -->

<svg
   xmlns:dc="http://purl.org/dc/elements/1.1/"
   xmlns:cc="http://creativecommons.org/ns#"
   xmlns:rdf="http://www.w3.org/1999/02/22-rdf-syntax-ns#"
   xmlns:svg="http://www.w3.org/2000/svg"
   xmlns="http://www.w3.org/2000/svg"
   xmlns:sodipodi="http://sodipodi.sourceforge.net/DTD/sodipodi-0.dtd"
   xmlns:inkscape="http://www.inkscape.org/namespaces/inkscape"
   version="1.1"
   id="Capa_1"
   x="0px"
   y="0px"
   viewBox="0 0 512 512"
   style="enable-background:new 0 0 512 512;"
   xml:space="preserve"
   sodipodi:docname="frontend.svg"
   inkscape:version="0.92.3 (2405546, 2018-03-11)"><metadata
   id="metadata1118"><rdf:RDF><cc:Work
       rdf:about=""><dc:format>image/svg+xml</dc:format><dc:type
         rdf:resource="http://purl.org/dc/dcmitype/StillImage" /><dc:title></dc:title></cc:Work></rdf:RDF></metadata><defs
   id="defs1116" /><sodipodi:namedview
   pagecolor="#ffffff"
   bordercolor="#666666"
   borderopacity="1"
   objecttolerance="10"
   gridtolerance="10"
   guidetolerance="10"
   inkscape:pageopacity="0"
   inkscape:pageshadow="2"
   inkscape:window-width="1309"
   inkscape:window-height="713"
   id="namedview1114"
   showgrid="false"
   inkscape:zoom="1.0390625"
   inkscape:cx="194.40602"
   inkscape:cy="251.37864"
   inkscape:window-x="57"
   inkscape:window-y="27"
   inkscape:window-maximized="1"
   inkscape:current-layer="Capa_1" />
<g
   id="g1015"
   transform="matrix(1,0,0,0.90205757,0,17.196645)"
   style="fill:#2a7824;fill-opacity:1">
	<g
   id="g1013"
   style="fill:#2a7824;fill-opacity:1">
		<path
   d="M 477.858,8.533 H 34.142 C 15.317,8.533 0,23.851 0,42.675 v 281.591 c 0,4.71 3.823,8.533 8.533,8.533 h 494.933 c 4.71,0 8.533,-3.823 8.533,-8.533 V 42.675 C 512,23.851 496.683,8.533 477.858,8.533 Z m 17.075,307.2 H 17.067 V 42.675 C 17.067,33.254 24.73,25.6 34.142,25.6 h 443.716 c 9.412,0 17.075,7.654 17.075,17.075 z"
   id="path1011"
   inkscape:connector-curvature="0"
   style="fill:#2a7824;fill-opacity:1" />
	</g>
</g>
<g
   id="g1021"
   transform="translate(0,-15.398496)"
   style="fill:#2a7824;fill-opacity:1">
	<g
   id="g1019"
   style="fill:#2a7824;fill-opacity:1">
		<path
   d="M 503.467,315.733 H 8.533 c -4.71,0 -8.533,3.823 -8.533,8.533 v 42.658 c 0,18.825 15.317,34.142 34.142,34.142 h 443.716 c 18.825,0 34.142,-15.317 34.142,-34.142 v -42.658 c 0,-4.71 -3.823,-8.533 -8.533,-8.533 z m -8.534,51.192 c 0,9.421 -7.663,17.075 -17.075,17.075 H 34.142 C 24.73,384 17.067,376.346 17.067,366.925 V 332.8 h 477.867 v 34.125 z"
   id="path1017"
   inkscape:connector-curvature="0"
   style="fill:#2a7824;fill-opacity:1" />
	</g>
</g>
<g
   id="g1027"
   transform="translate(0,-15.398496)"
   style="fill:#2a7824;fill-opacity:1">
	<g
   id="g1025"
   style="fill:#2a7824;fill-opacity:1">
		<path
   d="m 281.6,349.867 h -51.2 c -4.71,0 -8.533,3.823 -8.533,8.533 0,4.71 3.823,8.533 8.533,8.533 h 51.2 c 4.71,0 8.533,-3.823 8.533,-8.533 0,-4.71 -3.823,-8.533 -8.533,-8.533 z"
   id="path1023"
   inkscape:connector-curvature="0"
   style="fill:#2a7824;fill-opacity:1" />
	</g>
</g>

<g
   id="g1039"
   transform="translate(0,-15.398496)"
   style="fill:#2a7824;fill-opacity:1">
	<g
   id="g1037"
   style="fill:#2a7824;fill-opacity:1">
		<path
   d="M 366.933,452.267 H 145.067 c -14.114,0 -25.6,11.486 -25.6,25.6 0,14.114 11.486,25.6 25.6,25.6 h 221.867 c 14.114,0 25.6,-11.486 25.6,-25.6 0,-14.114 -11.487,-25.6 -25.601,-25.6 z m 0,34.133 H 145.067 c -4.71,0 -8.533,-3.831 -8.533,-8.533 0,-4.702 3.823,-8.533 8.533,-8.533 h 221.867 c 4.71,0 8.533,3.831 8.533,8.533 0,4.702 -3.823,8.533 -8.534,8.533 z"
   id="path1035"
   inkscape:connector-curvature="0"
   style="fill:#2a7824;fill-opacity:1" />
	</g>
</g>
<g
   id="g1045"
   transform="translate(0,-15.398496)"
   style="fill:#2a7824;fill-opacity:1">
	<g
   id="g1043"
   style="fill:#2a7824;fill-opacity:1">
		<path
   d="m 349.867,452.267 c -28.314,0 -42.667,-20.096 -42.667,-59.733 0,-4.71 -3.823,-8.533 -8.533,-8.533 h -85.333 c -4.71,0 -8.533,3.823 -8.533,8.533 0,39.637 -14.353,59.733 -42.667,59.733 -4.71,0 -8.533,3.823 -8.533,8.533 0,4.71 3.823,8.533 8.533,8.533 h 187.733 c 4.71,0 8.533,-3.823 8.533,-8.533 0,-4.71 -3.823,-8.533 -8.533,-8.533 z m -146.168,0 c 10.505,-11.639 16.691,-28.971 17.937,-51.2 h 68.736 c 1.237,22.229 7.424,39.561 17.937,51.2 z"
   id="path1041"
   inkscape:connector-curvature="0"
   style="fill:#2a7824;fill-opacity:1" />
	</g>
</g>
<g
   id="g1051"
   transform="translate(0,-15.398496)"
   style="fill:#2a7824;fill-opacity:1">
	<g
   id="g1049"
   style="fill:#2a7824;fill-opacity:1">
		<path
   d="m 256,76.8 c -61.167,0 -110.933,49.766 -110.933,110.933 0,61.167 49.766,110.934 110.933,110.934 61.167,0 110.933,-49.767 110.933,-110.934 C 366.933,126.566 317.167,76.8 256,76.8 Z m 0,204.8 c -51.755,0 -93.867,-42.112 -93.867,-93.867 0,-51.755 42.112,-93.866 93.867,-93.866 51.755,0 93.867,42.112 93.867,93.867 0,51.755 -42.112,93.866 -93.867,93.866 z"
   id="path1047"
   inkscape:connector-curvature="0"
   style="fill:#2a7824;fill-opacity:1" />
	</g>
</g>
<g
   id="g1057"
   transform="translate(0,-15.398496)"
   style="fill:#2a7824;fill-opacity:1">
	<g
   id="g1055"
   style="fill:#2a7824;fill-opacity:1">
		<path
   d="m 199.799,187.733 19.567,-19.567 c 3.337,-3.336 3.337,-8.73 0,-12.066 -3.328,-3.337 -8.738,-3.337 -12.066,0 l -25.6,25.6 c -3.337,3.337 -3.337,8.73 0,12.066 l 25.6,25.6 c 1.664,1.664 3.849,2.5 6.033,2.5 2.185,0 4.369,-0.836 6.033,-2.5 3.337,-3.337 3.337,-8.73 0,-12.066 z"
   id="path1053"
   inkscape:connector-curvature="0"
   style="fill:#2a7824;fill-opacity:1" />
	</g>
</g>
<g
   id="g1063"
   transform="translate(0,-15.398496)"
   style="fill:#2a7824;fill-opacity:1">
	<g
   id="g1061"
   style="fill:#2a7824;fill-opacity:1">
		<path
   d="m 330.3,181.7 -25.6,-25.6 c -3.328,-3.337 -8.738,-3.337 -12.066,0 -3.337,3.337 -3.337,8.73 0,12.066 l 19.567,19.567 -19.567,19.567 c -3.337,3.336 -3.337,8.73 0,12.066 1.664,1.664 3.849,2.5 6.033,2.5 2.185,0 4.369,-0.836 6.033,-2.5 l 25.6,-25.6 c 3.336,-3.336 3.336,-8.729 0,-12.066 z"
   id="path1059"
   inkscape:connector-curvature="0"
   style="fill:#2a7824;fill-opacity:1" />
	</g>
</g>
<g
   id="g1069"
   transform="translate(0,-15.398496)"
   style="fill:#2a7824;fill-opacity:1">
	<g
   id="g1067"
   style="fill:#2a7824;fill-opacity:1">
		<path
   d="m 275.763,128.435 c -4.446,-1.485 -9.301,0.93 -10.795,5.393 l -34.133,102.4 c -1.485,4.471 0.93,9.301 5.402,10.795 0.887,0.299 1.801,0.444 2.697,0.444 3.575,0 6.903,-2.261 8.098,-5.837 l 34.133,-102.4 c 1.485,-4.472 -0.93,-9.301 -5.402,-10.795 z"
   id="path1065"
   inkscape:connector-curvature="0"
   style="fill:#2a7824;fill-opacity:1" />
	</g>
</g>


<g
   id="g1083">
</g>
<g
   id="g1085">
</g>
<g
   id="g1087">
</g>
<g
   id="g1089">
</g>
<g
   id="g1091">
</g>
<g
   id="g1093">
</g>
<g
   id="g1095">
</g>
<g
   id="g1097">
</g>
<g
   id="g1099">
</g>
<g
   id="g1101">
</g>
<g
   id="g1103">
</g>
<g
   id="g1105">
</g>
<g
   id="g1107">
</g>
<g
   id="g1109">
</g>
<g
   id="g1111">
</g>
<path
   style="opacity:1;fill:#77d66f;fill-opacity:1;stroke-width:0.96240604"
   d="m 17.136194,177.5176 c 0.0034,-77.37513 0.353129,-123.236795 0.956316,-125.408089 1.136654,-4.091614 4.933622,-7.952297 9.834473,-9.9995 3.200223,-1.33681 27.33323,-1.494663 228.508177,-1.494663 h 224.93006 l 4.14677,2.007413 c 2.28072,1.104077 5.12421,3.377762 6.31889,5.052632 l 2.17213,3.045218 0.25129,124.390979 0.2513,124.39098 H 255.81821 17.130827 Z M 274.57444,282.0288 c 22.60829,-3.42931 45.81802,-15.949 62.44529,-33.68397 40.32535,-43.01183 40.28572,-109.57464 -0.0906,-152.034764 -16.40491,-17.25166 -35.87338,-28.201032 -58.9863,-33.174843 -12.92794,-2.782042 -34.06863,-2.402678 -47.26574,0.848171 -33.36876,8.219739 -60.01484,29.608238 -74.59939,59.880076 -20.70457,42.97461 -12.23123,93.47718 21.31145,127.01985 25.67303,25.67304 60.23694,36.74992 97.18526,31.14548 z"
   id="path1141"
   inkscape:connector-curvature="0" /><path
   style="opacity:1;fill:#9ee697;fill-opacity:1;stroke-width:0.96240604"
   d="m 17.245586,214.57024 c 0.06312,-46.71279 0.38793,-102.77374 0.721805,-124.579906 l 0.607045,-39.647571 3.325732,-3.429507 c 1.829152,-1.88623 4.86073,-3.894298 6.736842,-4.462375 2.366911,-0.716689 72.20229,-1.183349 228.13291,-1.524451 l 224.72181,-0.491584 4.50971,2.91713 c 7.98883,5.167629 7.26267,-7.149225 7.76815,131.759614 l 0.45263,124.39098 H 255.67653 17.130827 Z m 251.276064,68.46329 c 55.89022,-6.04222 98.92497,-54.35155 98.92497,-111.04976 0,-39.18293 -20.81961,-75.256585 -55.43164,-96.045162 C 287.02106,60.92684 254.17836,56.870627 225.32493,65.23202 c -35.16951,10.191725 -63.11543,36.9733 -74.97971,71.85573 -7.61527,22.38983 -7.55181,48.53293 0.17303,71.27118 13.67477,40.25208 50.92921,70.28214 92.68746,74.71353 10.80876,1.14702 14.39703,1.14151 25.31594,-0.0389 z"
   id="path1143"
   inkscape:connector-curvature="0" /><path
   style="opacity:1;fill:#9ee697;fill-opacity:1;stroke-width:0.96240604"
   d="m 26.273684,366.04278 c -7.919739,-4.89198 -9.047715,-8.69593 -9.100614,-30.69059 l -0.04224,-17.56391 h 238.67669 238.67669 v 18.61555 c 0,17.62516 -0.11905,18.8412 -2.23761,22.85714 -1.39496,2.64427 -3.66015,5.0511 -6.01504,6.39118 l -3.77742,2.14958 -226.64662,0.0122 c -218.988318,0.0118 -226.744176,-0.048 -229.533836,-1.77118 z M 283.95635,351.42231 c 6.59563,-1.8317 8.5689,-9.57564 3.6846,-14.45994 l -2.81318,-2.81319 h -28.52829 c -17.72597,0 -29.22939,0.37522 -30.37986,0.99094 -2.7685,1.48166 -4.97904,6.4015 -4.28863,9.54491 0.72159,3.28538 3.98247,6.46691 7.22916,7.05324 5.10047,0.9211 51.602,0.65443 55.0962,-0.31596 z"
   id="path1145"
   inkscape:connector-curvature="0" /><path
   style="opacity:1;fill:#9ee697;fill-opacity:1;stroke-width:0.96240604"
   d="m 205.76241,435.6188 c 0,-0.29998 1.03426,-1.92404 2.29836,-3.60902 6.55918,-8.74308 11.47022,-23.47015 13.61826,-40.83804 l 0.6249,-5.05263 h 33.93388 33.93389 l 0.59488,6.97744 c 1.17664,13.8008 7.15257,31.10504 13.71177,39.7046 l 2.56514,3.36307 h -50.64054 c -27.8523,0 -50.64054,-0.24544 -50.64054,-0.54542 z"
   id="path1147"
   inkscape:connector-curvature="0" /><path
   style="opacity:1;fill:#9ee697;fill-opacity:1;stroke-width:0.96240604"
   d="m 141.76241,469.70611 c -3.12828,-1.72175 -4.33083,-3.85178 -4.33083,-7.67102 0,-2.73834 0.60471,-4.07149 2.5358,-5.59049 2.53285,-1.99234 2.66809,-1.99467 116.04396,-1.99467 h 113.50815 l 2.81318,2.81319 c 3.44086,3.44085 3.59766,6.75391 0.49063,10.36623 l -2.32257,2.70028 -113.40675,0.21793 c -81.09477,0.15584 -113.95518,-0.0839 -115.33157,-0.84145 z"
   id="path1149"
   inkscape:connector-curvature="0" /><path
   style="opacity:1;fill:#aaeba4;fill-opacity:1;stroke-width:0.96240604"
   d="m 17.634454,181.84843 c 0.363504,-64.70977 0.796563,-120.85981 0.962353,-124.777857 0.302554,-7.150127 2.42333,-12.124398 5.169227,-12.124398 0.623836,0 1.491683,-0.578343 1.928549,-1.285207 0.436866,-0.706863 1.070693,-1.248217 1.408506,-1.203007 0.337813,0.04521 0.722475,0.0809 0.854806,0.07931 0.132331,-0.0016 6.5203,-0.159942 14.195488,-0.351893 7.675188,-0.191951 109.738897,-0.651605 226.808227,-1.021453 l 212.85334,-0.672451 3.88724,2.453904 c 2.13797,1.349648 4.39048,3.394222 5.00555,4.5435 2.39333,4.471983 3.14812,38.213012 3.22091,143.983512 l 0.0744,108.02997 -238.51474,1.1e-4 -238.514731,10e-5 z M 272.16842,282.21182 c 30.76996,-4.40725 59.28614,-22.78063 76.73973,-49.44451 21.4843,-32.82162 23.78531,-77.4748 5.73586,-111.30986 -16.21165,-30.389948 -46.97382,-53.123283 -79.48677,-58.740966 -8.7285,-1.508137 -29.98233,-1.29776 -39.07904,0.386817 -21.61881,4.003485 -43.35914,15.486296 -58.85181,31.084367 -12.63197,12.717902 -25.50158,35.003322 -28.80887,49.886322 -6.36846,28.65847 -3.39293,54.52096 9.07755,78.89945 12.95907,25.33363 37.67392,46.6066 63.66583,54.79949 2.91128,0.91766 5.94286,1.90867 6.73684,2.20225 0.79399,0.29358 2.52632,0.67419 3.84963,0.84581 1.32331,0.1716 3.48872,0.59538 4.81203,0.94172 1.32331,0.34634 4.06961,0.76564 6.10289,0.93178 2.03328,0.16615 3.85434,0.45954 4.0468,0.652 0.67489,0.6749 18.31412,-0.11125 25.45933,-1.13467 z"
   id="path1151"
   inkscape:connector-curvature="0" /><path
   style="opacity:1;fill:#aaeba4;fill-opacity:1;stroke-width:0.96240604"
   d="m 70.063158,366.89951 c -39.996201,-0.47603 -43.00526,-0.6305 -45.522875,-2.33685 -1.482694,-1.00492 -3.362033,-3.11547 -4.17631,-4.69011 -1.811597,-3.50324 -3.172163,-16.76378 -3.207069,-31.2572 l -0.02608,-10.82707 h 238.801206 238.8012 l -0.42632,18.60307 c -0.48516,21.16987 -1.29236,24.03979 -8.09009,28.76345 l -3.76268,2.61465 -184.78196,-0.18011 C 196.04211,367.49028 93.618045,367.17986 70.063158,366.89951 Z M 283.967,351.41937 c 1.98997,-0.55263 4.30144,-2.04768 5.13663,-3.32232 2.00749,-3.06383 1.23248,-8.59418 -1.63161,-11.64287 l -2.21051,-2.35298 -29.17023,0.0763 c -28.6027,0.0748 -29.21752,0.1174 -31.60159,2.18941 -1.43432,1.24657 -2.66531,3.58261 -3.00186,5.69659 -0.5062,3.17965 -0.188,3.96597 2.82347,6.97745 l 3.39396,3.39396 26.32181,-0.005 c 15.31815,-0.003 27.83433,-0.42541 29.93993,-1.01016 z"
   id="path1153"
   inkscape:connector-curvature="0" /><path
   style="opacity:1;fill:#aaeba4;fill-opacity:1;stroke-width:0.96240604"
   d="m 220.92777,435.24108 -14.18802,-0.52047 2.88798,-4.33083 c 5.56373,-8.34339 12.49558,-31.251 12.49558,-41.29403 v -2.97664 h 33.58124 c 37.2661,0 34.73458,-0.47878 34.76462,6.57495 0.008,1.94167 0.66661,6.12881 1.46298,9.30475 0.79637,3.17594 1.67896,6.83004 1.96131,8.12023 1.08008,4.93538 6.01295,16.36865 8.9219,20.67887 1.67049,2.47522 3.03727,4.69523 3.03727,4.93335 0,0.56606 -66.61281,0.18157 -84.92486,-0.49018 z"
   id="path1155"
   inkscape:connector-curvature="0" /><path
   style="opacity:1;fill:#aaeba4;fill-opacity:1;stroke-width:0.96240604"
   d="m 140.50257,468.16422 c -1.07485,-0.92632 -2.23729,-3.07966 -2.58321,-4.7852 -0.50456,-2.48774 -0.17938,-3.55054 1.64429,-5.37421 2.25453,-2.25453 2.5065,-2.27849 30.62697,-2.91228 15.59456,-0.35147 66.70881,-0.63985 113.58722,-0.64082 l 85.23348,-0.002 2.58607,2.69928 c 3.06489,3.19907 3.34874,7.37741 0.71557,10.53381 l -1.80646,2.16541 H 256.48167 c -107.20898,0 -114.14164,-0.10067 -115.9791,-1.68421 z"
   id="path1157"
   inkscape:connector-curvature="0" /></svg>