<svg width="80" height="80" viewBox="0 0 80 80" fill="none" xmlns="http://www.w3.org/2000/svg">
<rect x="0.5" y="8.5" width="79" height="51" rx="2.5" fill="#AAEBA4" stroke="#2A7824"/>
<rect x="23.5" y="68.5" width="33" height="3" rx="1.5" stroke="#2A7824"/>
<path d="M55 68.5H25L28 66L30.5 64L33 61.5L34.5 59.5H45.5L47 61.5L49.5 64L52 66L55 68.5Z" fill="#AAEBA4" stroke="#2A7824"/>
<circle cx="40" cy="31" r="14.5" fill="#F0F0F0" stroke="#2A7824"/>
<rect x="43.3393" y="24" width="1" height="15" rx="0.5" transform="rotate(25 43.3393 24)" fill="#2A7824"/>
<rect x="45.9497" y="35.8995" width="1" height="7" rx="0.5" transform="rotate(-135 45.9497 35.8995)" fill="#2A7824"/>
<rect x="50.8995" y="30.9497" width="1" height="7" rx="0.5" transform="rotate(135 50.8995 30.9497)" fill="#2A7824"/>
<rect x="34.9497" y="26" width="1" height="7" rx="0.5" transform="rotate(45 34.9497 26)" fill="#2A7824"/>
<rect x="30" y="30.9498" width="1" height="7" rx="0.5" transform="rotate(-45 30 30.9498)" fill="#2A7824"/>
<path d="M0.5 51.5H79.5V57C79.5 58.3807 78.3807 59.5 77 59.5H3C1.61929 59.5 0.5 58.3807 0.5 57V51.5Z" fill="#F0F0F0" stroke="#2A7824"/>
<rect x="34" y="55" width="12" height="1" rx="0.5" fill="#2A7824"/>
</svg>
