<svg width="60" height="60" viewBox="0 0 60 60" fill="none" xmlns="http://www.w3.org/2000/svg">
<circle cx="30" cy="28" r="14.5" fill="#AAEBA4" stroke="#2A7824"/>
<rect x="10.5" y="28.5" width="39" height="5" rx="1.5" fill="#F0F0F0" stroke="#2A7824"/>
<path d="M52.5 37C52.5 37.9052 51.9965 38.7684 51.095 39.4241C50.194 40.0793 48.9246 40.5 47.5 40.5C46.0754 40.5 44.806 40.0793 43.905 39.4241C43.0035 38.7684 42.5 37.9052 42.5 37C42.5 36.0948 43.0035 35.2316 43.905 34.5759C44.806 33.9207 46.0754 33.5 47.5 33.5C48.9246 33.5 50.194 33.9207 51.095 34.5759C51.9965 35.2316 52.5 36.0948 52.5 37Z" fill="#AAEBA4" stroke="#2A7824"/>
<path d="M17.5 37C17.5 37.9052 16.9965 38.7684 16.095 39.4241C15.194 40.0793 13.9246 40.5 12.5 40.5C11.0754 40.5 9.80601 40.0793 8.905 39.4241C8.0035 38.7684 7.5 37.9052 7.5 37C7.5 36.0948 8.0035 35.2316 8.905 34.5759C9.80601 33.9207 11.0754 33.5 12.5 33.5C13.9246 33.5 15.194 33.9207 16.095 34.5759C16.9965 35.2316 17.5 36.0948 17.5 37Z" fill="#AAEBA4" stroke="#2A7824"/>
<rect x="14.5" y="33.5" width="31" height="20" fill="#AAEBA4" stroke="#2A7824"/>
<rect x="10.5" y="40.5" width="4" height="13" fill="#F0F0F0" stroke="#2A7824"/>
<rect x="45.5" y="40.5" width="4" height="13" fill="#F0F0F0" stroke="#2A7824"/>
<rect x="24.5" y="39.5" width="11" height="9" rx="0.5" fill="#F0F0F0" stroke="#2A7824"/>
<circle cx="24.5" cy="21.5" r="0.5" fill="#2A7824"/>
<circle cx="35.5" cy="21.5" r="0.5" fill="#2A7824"/>
<line x1="23.5" y1="15" x2="23.5" y2="8" stroke="#2A7824"/>
<line x1="36.5" y1="15" x2="36.5" y2="8" stroke="#2A7824"/>
<rect x="21" y="7" width="5" height="1" rx="0.5" fill="#2A7824"/>
<rect x="34" y="7" width="5" height="1" rx="0.5" fill="#2A7824"/>
<rect x="26.5" y="41.5" width="7" height="5" rx="0.5" fill="#AAEBA4" stroke="#2A7824"/>
<line x1="36" y1="46.5" x2="39" y2="46.5" stroke="#2A7824"/>
<circle cx="39.5" cy="46.5" r="1" fill="#F0F0F0" stroke="#2A7824"/>
<line x1="24" y1="41.5" x2="21" y2="41.5" stroke="#2A7824"/>
<circle cx="20.5" cy="41.5" r="1" transform="rotate(-180 20.5 41.5)" fill="#F0F0F0" stroke="#2A7824"/>
<rect x="35.25" y="41.25" width="2.5" height="0.5" rx="0.25" fill="#C4C4C4" stroke="#2A7824" stroke-width="0.5"/>
<rect x="22.25" y="46.25" width="2.5" height="0.5" rx="0.25" fill="#C4C4C4" stroke="#2A7824" stroke-width="0.5"/>
</svg>
