<?xml version="1.0" encoding="UTF-8" standalone="no"?>
<!-- Generator: Adobe Illustrator 19.0.0, SVG Export Plug-In . SVG Version: 6.00 Build 0)  -->

<svg
   xmlns:dc="http://purl.org/dc/elements/1.1/"
   xmlns:cc="http://creativecommons.org/ns#"
   xmlns:rdf="http://www.w3.org/1999/02/22-rdf-syntax-ns#"
   xmlns:svg="http://www.w3.org/2000/svg"
   xmlns="http://www.w3.org/2000/svg"
   xmlns:sodipodi="http://sodipodi.sourceforge.net/DTD/sodipodi-0.dtd"
   xmlns:inkscape="http://www.inkscape.org/namespaces/inkscape"
   version="1.1"
   id="Capa_1"
   x="0px"
   y="0px"
   viewBox="0 0 423.253 423.253"
   style="enable-background:new 0 0 423.253 423.253;"
   xml:space="preserve"
   sodipodi:docname="robo.svg"
   inkscape:version="0.92.3 (2405546, 2018-03-11)"><metadata
   id="metadata1401"><rdf:RDF><cc:Work
       rdf:about=""><dc:format>image/svg+xml</dc:format><dc:type
         rdf:resource="http://purl.org/dc/dcmitype/StillImage" /></cc:Work></rdf:RDF></metadata><defs
   id="defs1399" /><sodipodi:namedview
   pagecolor="#ffffff"
   bordercolor="#666666"
   borderopacity="1"
   objecttolerance="10"
   gridtolerance="10"
   guidetolerance="10"
   inkscape:pageopacity="0"
   inkscape:pageshadow="2"
   inkscape:window-width="1309"
   inkscape:window-height="713"
   id="namedview1397"
   showgrid="false"
   inkscape:zoom="0.55758614"
   inkscape:cx="211.6265"
   inkscape:cy="211.6265"
   inkscape:window-x="57"
   inkscape:window-y="27"
   inkscape:window-maximized="1"
   inkscape:current-layer="Capa_1" />
<g
   id="g1304"
   style="fill:#2a7824;fill-opacity:1">
	<g
   id="g1302"
   style="fill:#2a7824;fill-opacity:1">
		<path
   d="M34.133,167.253H6.827c-3.773,0-6.827,3.053-6.827,6.827V256c0,3.773,3.053,6.827,6.827,6.827h27.307    c3.773,0,6.827-3.053,6.827-6.827v-81.92C40.96,170.307,37.907,167.253,34.133,167.253z M27.307,249.173H13.653v-68.267h13.653    V249.173z"
   id="path1300"
   style="fill:#2a7824;fill-opacity:1" />
	</g>
</g>
<g
   id="g1310"
   style="fill:#2a7824;fill-opacity:1">
	<g
   id="g1308"
   style="fill:#2a7824;fill-opacity:1">
		<path
   d="M245.76,324.267h-68.267c-3.773,0-6.827,3.053-6.827,6.827v61.44c0,3.773,3.053,6.827,6.827,6.827h68.267    c3.773,0,6.827-3.053,6.827-6.827v-61.44C252.587,327.32,249.533,324.267,245.76,324.267z M238.933,385.707H184.32V337.92h54.613    V385.707z"
   id="path1306"
   style="fill:#2a7824;fill-opacity:1" />
	</g>
</g>
<g
   id="g1316"
   style="fill:#2a7824;fill-opacity:1">
	<g
   id="g1314"
   style="fill:#2a7824;fill-opacity:1">
		<path
   d="M416.427,167.253H389.12c-3.773,0-6.827,3.053-6.827,6.827V256c0,3.773,3.053,6.827,6.827,6.827h27.307    c3.773,0,6.827-3.053,6.827-6.827v-81.92C423.253,170.307,420.2,167.253,416.427,167.253z M409.6,249.173h-13.653v-68.267H409.6    V249.173z"
   id="path1312"
   style="fill:#2a7824;fill-opacity:1" />
	</g>
</g>
<g
   id="g1322"
   style="fill:#2a7824;fill-opacity:1">
	<g
   id="g1320"
   style="fill:#2a7824;fill-opacity:1">
		<path
   d="M109.227,51.2c-3.773,0-6.827,3.053-6.827,6.827v68.267c0,3.773,3.053,6.827,6.827,6.827s6.827-3.053,6.827-6.827V58.027    C116.053,54.253,113,51.2,109.227,51.2z"
   id="path1318"
   style="fill:#2a7824;fill-opacity:1" />
	</g>
</g>
<g
   id="g1328"
   style="fill:#2a7824;fill-opacity:1">
	<g
   id="g1326"
   style="fill:#2a7824;fill-opacity:1">
		<path
   d="M361.854,119.467H61.401c-18.801,0-34.094,15.307-34.094,34.126v150.2c0,18.819,15.293,34.127,34.094,34.127h300.452    c18.801,0,34.094-15.307,34.094-34.127v-150.2C395.947,134.774,380.653,119.467,361.854,119.467z M382.295,303.793    c0,11.286-9.168,20.473-20.441,20.473H61.401c-11.274,0-20.441-9.187-20.441-20.473v-150.2c0-11.286,9.167-20.473,20.441-20.473    h300.454c11.274,0,20.441,9.187,20.441,20.473V303.793z"
   id="path1324"
   style="fill:#2a7824;fill-opacity:1" />
	</g>
</g>
<g
   id="g1334"
   style="fill:#2a7824;fill-opacity:1">
	<g
   id="g1332"
   style="fill:#2a7824;fill-opacity:1">
		<path
   d="M252.587,242.347h-81.92c-3.773,0-6.827,3.053-6.827,6.827c0,26.348,21.439,47.787,47.787,47.787    s47.787-21.439,47.787-47.787C259.413,245.4,256.36,242.347,252.587,242.347z M211.627,283.307    c-16.486,0-30.275-11.747-33.447-27.307h66.895C241.9,271.56,228.113,283.307,211.627,283.307z"
   id="path1330"
   style="fill:#2a7824;fill-opacity:1" />
	</g>
</g>
<g
   id="g1340"
   style="fill:#2a7824;fill-opacity:1">
	<g
   id="g1338"
   style="fill:#2a7824;fill-opacity:1">
		<path
   d="M109.227,23.893c-11.293,0-20.48,9.187-20.48,20.48c0,11.293,9.187,20.48,20.48,20.48c11.293,0,20.48-9.187,20.48-20.48    C129.707,33.08,120.52,23.893,109.227,23.893z M109.227,51.2c-3.767,0-6.827-3.06-6.827-6.827c0-3.767,3.06-6.827,6.827-6.827    c3.767,0,6.827,3.06,6.827,6.827C116.053,48.14,112.993,51.2,109.227,51.2z"
   id="path1336"
   style="fill:#2a7824;fill-opacity:1" />
	</g>
</g>
<g
   id="g1346"
   style="fill:#2a7824;fill-opacity:1">
	<g
   id="g1344"
   style="fill:#2a7824;fill-opacity:1">
		<path
   d="M314.027,51.2c-3.773,0-6.827,3.053-6.827,6.827v68.267c0,3.773,3.053,6.827,6.827,6.827s6.827-3.053,6.827-6.827V58.027    C320.853,54.253,317.8,51.2,314.027,51.2z"
   id="path1342"
   style="fill:#2a7824;fill-opacity:1" />
	</g>
</g>
<g
   id="g1352"
   style="fill:#2a7824;fill-opacity:1">
	<g
   id="g1350"
   style="fill:#2a7824;fill-opacity:1">
		<path
   d="M314.027,23.893c-11.293,0-20.48,9.187-20.48,20.48c0,11.293,9.187,20.48,20.48,20.48s20.48-9.187,20.48-20.48    C334.507,33.08,325.32,23.893,314.027,23.893z M314.027,51.2c-3.767,0-6.827-3.06-6.827-6.827c0-3.767,3.06-6.827,6.827-6.827    s6.827,3.06,6.827,6.827C320.853,48.14,317.793,51.2,314.027,51.2z"
   id="path1348"
   style="fill:#2a7824;fill-opacity:1" />
	</g>
</g>
<g
   id="g1358"
   style="fill:#2a7824;fill-opacity:1">
	<g
   id="g1356"
   style="fill:#2a7824;fill-opacity:1">
		<path
   d="M116.053,174.08c-18.819,0-34.133,15.314-34.133,34.133c0,18.819,15.314,34.133,34.133,34.133    c18.819,0,34.133-15.314,34.133-34.133C150.187,189.394,134.873,174.08,116.053,174.08z M116.053,228.693    c-11.293,0-20.48-9.187-20.48-20.48s9.187-20.48,20.48-20.48c11.293,0,20.48,9.187,20.48,20.48S127.346,228.693,116.053,228.693z"
   id="path1354"
   style="fill:#2a7824;fill-opacity:1" />
	</g>
</g>
<g
   id="g1364"
   style="fill:#2a7824;fill-opacity:1">
	<g
   id="g1362"
   style="fill:#2a7824;fill-opacity:1">
		<path
   d="M307.2,174.08c-18.819,0-34.133,15.314-34.133,34.133c0,18.819,15.314,34.133,34.133,34.133    c18.819,0,34.133-15.314,34.133-34.133C341.333,189.394,326.019,174.08,307.2,174.08z M307.2,228.693    c-11.293,0-20.48-9.187-20.48-20.48s9.187-20.48,20.48-20.48c11.293,0,20.48,9.187,20.48,20.48S318.493,228.693,307.2,228.693z"
   id="path1360"
   style="fill:#2a7824;fill-opacity:1" />
	</g>
</g>
<g
   id="g1366">
</g>
<g
   id="g1368">
</g>
<g
   id="g1370">
</g>
<g
   id="g1372">
</g>
<g
   id="g1374">
</g>
<g
   id="g1376">
</g>
<g
   id="g1378">
</g>
<g
   id="g1380">
</g>
<g
   id="g1382">
</g>
<g
   id="g1384">
</g>
<g
   id="g1386">
</g>
<g
   id="g1388">
</g>
<g
   id="g1390">
</g>
<g
   id="g1392">
</g>
<g
   id="g1394">
</g>
<path
   style="opacity:1;fill:#aaeba4;fill-opacity:1;stroke-width:1.79344487"
   d="m 54.140724,321.77975 c -2.083149,-0.84168 -5.513113,-3.72403 -7.62214,-6.40523 -3.789952,-4.81815 -3.834596,-5.82793 -3.834596,-86.73245 0,-89.73302 -0.344407,-86.77695 10.780477,-92.52985 4.478737,-2.31604 25.91722,-2.67992 157.891595,-2.67992 169.31257,0 161.69608,-0.52844 167.46026,11.61866 4.16411,8.77523 4.2615,159.75298 0.10815,167.78453 -5.78919,11.19506 1.81792,10.71308 -167.11931,10.58828 -84.63233,-0.0626 -155.581357,-0.80233 -157.664507,-1.64402 z m 177.912016,-28.6207 c 14.85776,-6.56481 25.68993,-21.84402 27.29905,-38.50637 1.31672,-13.63463 1.39101,-13.61369 -48.29866,-13.61369 -36.31037,0 -42.9863,0.41451 -45.39006,2.81827 -3.51418,3.51418 -3.55572,8.39503 -0.16852,19.80098 4.55809,15.34875 19.12142,28.80248 35.90931,33.17334 7.43488,1.93573 21.87104,0.20591 30.64888,-3.67253 z M 131.9934,238.98709 c 11.20026,-5.42195 18.29728,-16.95811 18.29728,-29.74211 0,-12.18625 -3.16995,-19.69702 -11.34122,-26.87149 -5.96495,-5.23729 -16.12013,-9.4654 -22.73423,-9.4654 -10.34789,0 -25.918102,9.37445 -30.837575,18.56658 -6.197905,11.58089 -4.772853,27.82425 3.378662,38.51143 9.376116,12.29272 28.299513,16.23215 43.237083,9.00099 z m 190.31384,0.3371 c 19.32468,-9.85872 25.54827,-33.52726 13.3541,-50.78621 -10.90823,-15.43893 -32.69389,-19.68437 -47.65714,-9.28709 -22.6363,15.72892 -20.08997,47.4454 4.86535,60.6015 7.51643,3.96256 21.11329,3.71859 29.43769,-0.5282 z"
   id="path1946"
   inkscape:connector-curvature="0" /><path
   style="opacity:1;fill:#aaeba4;fill-opacity:1;stroke-width:1.79344487"
   d="m 184.36613,361.1998 v -23.31479 h 26.90168 26.90167 v 23.31479 23.31478 h -26.90167 -26.90168 z"
   id="path1948"
   inkscape:connector-curvature="0" /></svg>