<?xml version="1.0" encoding="UTF-8" standalone="no"?>
<!-- Generator: Adobe Illustrator 19.0.0, SVG Export Plug-In . SVG Version: 6.00 Build 0)  -->

<svg
   xmlns:dc="http://purl.org/dc/elements/1.1/"
   xmlns:cc="http://creativecommons.org/ns#"
   xmlns:rdf="http://www.w3.org/1999/02/22-rdf-syntax-ns#"
   xmlns:svg="http://www.w3.org/2000/svg"
   xmlns="http://www.w3.org/2000/svg"
   xmlns:sodipodi="http://sodipodi.sourceforge.net/DTD/sodipodi-0.dtd"
   xmlns:inkscape="http://www.inkscape.org/namespaces/inkscape"
   version="1.1"
   id="Capa_1"
   x="0px"
   y="0px"
   viewBox="0 0 448 448"
   style="enable-background:new 0 0 448 448;"
   xml:space="preserve"
   sodipodi:docname="ufo-footer.svg"
   inkscape:version="0.92.3 (2405546, 2018-03-11)"><metadata
   id="metadata168"><rdf:RDF><cc:Work
       rdf:about=""><dc:format>image/svg+xml</dc:format><dc:type
         rdf:resource="http://purl.org/dc/dcmitype/StillImage" /><dc:title></dc:title></cc:Work></rdf:RDF></metadata><defs
   id="defs166" /><sodipodi:namedview
   pagecolor="#ffffff"
   bordercolor="#666666"
   borderopacity="1"
   objecttolerance="10"
   gridtolerance="10"
   guidetolerance="10"
   inkscape:pageopacity="0"
   inkscape:pageshadow="2"
   inkscape:window-width="1309"
   inkscape:window-height="713"
   id="namedview164"
   showgrid="false"
   inkscape:zoom="1.1875"
   inkscape:cx="224"
   inkscape:cy="224"
   inkscape:window-x="57"
   inkscape:window-y="27"
   inkscape:window-maximized="1"
   inkscape:current-layer="Capa_1" />

<g
   id="g119">
	
</g>

<g
   id="g131"
   transform="translate(0.84210535,65.684211)"
   style="fill:#f0f0f0;fill-opacity:1">
	<g
   id="g129"
   style="fill:#f0f0f0;fill-opacity:1">
		<path
   d="M 351.305,121.885 C 344.636,57.528 290.091,7.172 224,7.172 157.909,7.172 103.365,57.528 96.695,121.885 38.31,139.212 0,168.088 0,200.829 c 0,53.019 100.288,96 224,96 123.712,0 224,-42.981 224,-96 0,-32.741 -38.31,-61.617 -96.695,-78.944 z M 88,232.829 c -13.255,0 -24,-10.745 -24,-24 0,-13.255 10.745,-24 24,-24 13.255,0 24,10.745 24,24 0,13.255 -10.745,24 -24,24 z M 180.61,129.79 c 2.919,-4.771 13.021,-3.906 22.562,1.934 9.541,5.839 14.909,14.439 11.99,19.21 -2.92,4.77 -13.021,3.906 -22.562,-1.934 -9.54,-5.839 -14.908,-14.44 -11.99,-19.21 z M 224,264.829 c -13.255,0 -24,-10.745 -24,-24 0,-13.255 10.745,-24 24,-24 13.255,0 24,10.745 24,24 0,13.255 -10.745,24 -24,24 z M 255.316,149 c -9.541,5.839 -19.642,6.704 -22.562,1.934 -2.919,-4.77 2.45,-13.371 11.991,-19.21 9.541,-5.839 19.642,-6.705 22.562,-1.934 2.919,4.77 -2.45,13.371 -11.991,19.21 z m 64.685,-3.54 v 0 c -11.81,8.434 -29.52,15.147 -50.622,19.186 5.806,-12.053 9.802,-25.608 9.85,-39.898 C 279.376,80.235 243.303,69.18 224,69.18 c -19.303,0 -55.46,11.054 -55.311,55.567 0.047,14.282 4.039,27.83 9.84,39.878 -21.059,-4.041 -38.738,-10.744 -50.528,-19.166 v -10.287 c 0,-52.938 43.062,-96 96,-96 52.938,0 96,43.062 96,96 z M 360,232.829 c -13.255,0 -24,-10.745 -24,-24 0,-13.255 10.745,-24 24,-24 13.255,0 24,10.745 24,24 0,13.255 -10.745,24 -24,24 z"
   id="path127"
   inkscape:connector-curvature="0"
   style="fill:#f0f0f0;fill-opacity:1" />
	</g>
</g>
<g
   id="g133">
</g>
<g
   id="g135">
</g>
<g
   id="g137">
</g>
<g
   id="g139">
</g>
<g
   id="g141">
</g>
<g
   id="g143">
</g>
<g
   id="g145">
</g>
<g
   id="g147">
</g>
<g
   id="g149">
</g>
<g
   id="g151">
</g>
<g
   id="g153">
</g>
<g
   id="g155">
</g>
<g
   id="g157">
</g>
<g
   id="g159">
</g>
<g
   id="g161">
</g>
</svg>