<?xml version="1.0" encoding="UTF-8" standalone="no"?>
<!-- Generator: Adobe Illustrator 18.0.0, SVG Export Plug-In . SVG Version: 6.00 Build 0)  -->

<svg
   xmlns:dc="http://purl.org/dc/elements/1.1/"
   xmlns:cc="http://creativecommons.org/ns#"
   xmlns:rdf="http://www.w3.org/1999/02/22-rdf-syntax-ns#"
   xmlns:svg="http://www.w3.org/2000/svg"
   xmlns="http://www.w3.org/2000/svg"
   xmlns:sodipodi="http://sodipodi.sourceforge.net/DTD/sodipodi-0.dtd"
   xmlns:inkscape="http://www.inkscape.org/namespaces/inkscape"
   version="1.1"
   id="Capa_1"
   x="0px"
   y="0px"
   viewBox="0 0 382.117 382.117"
   style="enable-background:new 0 0 382.117 382.117;"
   xml:space="preserve"
   sodipodi:docname="envelope-fechado-de-mensagem.svg"
   inkscape:version="0.92.3 (2405546, 2018-03-11)"><metadata
   id="metadata124"><rdf:RDF><cc:Work
       rdf:about=""><dc:format>image/svg+xml</dc:format><dc:type
         rdf:resource="http://purl.org/dc/dcmitype/StillImage" /></cc:Work></rdf:RDF></metadata><defs
   id="defs122" /><sodipodi:namedview
   pagecolor="#ffffff"
   bordercolor="#666666"
   borderopacity="1"
   objecttolerance="10"
   gridtolerance="10"
   guidetolerance="10"
   inkscape:pageopacity="0"
   inkscape:pageshadow="2"
   inkscape:window-width="1309"
   inkscape:window-height="713"
   id="namedview120"
   showgrid="false"
   inkscape:zoom="1.3922437"
   inkscape:cx="191.0585"
   inkscape:cy="191.0585"
   inkscape:window-x="57"
   inkscape:window-y="27"
   inkscape:window-maximized="1"
   inkscape:current-layer="Capa_1" />
<path
   d="M336.764,45.945H45.354C20.346,45.945,0,65.484,0,89.5v203.117c0,24.016,20.346,43.555,45.354,43.555h291.41  c25.008,0,45.353-19.539,45.353-43.555V89.5C382.117,65.484,361.772,45.945,336.764,45.945z M336.764,297.72H45.354  c-3.676,0-6.9-2.384-6.9-5.103V116.359l131.797,111.27c2.702,2.282,6.138,3.538,9.676,3.538l22.259,0.001  c3.536,0,6.974-1.257,9.677-3.539l131.803-111.274v176.264C343.664,295.336,340.439,297.72,336.764,297.72z M191.059,192.987  L62.87,84.397h256.378L191.059,192.987z"
   id="path87"
   style="fill:#646464;fill-opacity:1" />
<g
   id="g89">
</g>
<g
   id="g91">
</g>
<g
   id="g93">
</g>
<g
   id="g95">
</g>
<g
   id="g97">
</g>
<g
   id="g99">
</g>
<g
   id="g101">
</g>
<g
   id="g103">
</g>
<g
   id="g105">
</g>
<g
   id="g107">
</g>
<g
   id="g109">
</g>
<g
   id="g111">
</g>
<g
   id="g113">
</g>
<g
   id="g115">
</g>
<g
   id="g117">
</g>
</svg>