<?xml version="1.0" encoding="UTF-8" standalone="no"?>
<!-- Generator: Adobe Illustrator 18.1.1, SVG Export Plug-In . SVG Version: 6.00 Build 0)  -->

<svg
   xmlns:dc="http://purl.org/dc/elements/1.1/"
   xmlns:cc="http://creativecommons.org/ns#"
   xmlns:rdf="http://www.w3.org/1999/02/22-rdf-syntax-ns#"
   xmlns:svg="http://www.w3.org/2000/svg"
   xmlns="http://www.w3.org/2000/svg"
   xmlns:sodipodi="http://sodipodi.sourceforge.net/DTD/sodipodi-0.dtd"
   xmlns:inkscape="http://www.inkscape.org/namespaces/inkscape"
   version="1.1"
   id="Capa_1"
   x="0px"
   y="0px"
   viewBox="0 0 612.001 612.001"
   style="enable-background:new 0 0 612.001 612.001;"
   xml:space="preserve"
   sodipodi:docname="estrangeiro-do-espaco.svg"
   inkscape:version="0.92.3 (2405546, 2018-03-11)"><metadata
   id="metadata148"><rdf:RDF><cc:Work
       rdf:about=""><dc:format>image/svg+xml</dc:format><dc:type
         rdf:resource="http://purl.org/dc/dcmitype/StillImage" /></cc:Work></rdf:RDF></metadata><defs
   id="defs146" /><sodipodi:namedview
   pagecolor="#ffffff"
   bordercolor="#666666"
   borderopacity="1"
   objecttolerance="10"
   gridtolerance="10"
   guidetolerance="10"
   inkscape:pageopacity="0"
   inkscape:pageshadow="2"
   inkscape:window-width="1309"
   inkscape:window-height="713"
   id="namedview144"
   showgrid="false"
   inkscape:zoom="0.86927966"
   inkscape:cx="306.00049"
   inkscape:cy="306.00049"
   inkscape:window-x="57"
   inkscape:window-y="27"
   inkscape:window-maximized="1"
   inkscape:current-layer="Capa_1" />
<g
   id="g111"
   style="fill:#2a7824;fill-opacity:1">
	<path
   d="M64.601,236.822c0,157.434,128.185,375.178,241.4,375.178c106.581,0,241.399-217.744,241.399-375.178S439.322,0,306,0   S64.601,79.388,64.601,236.822z M368.721,353.237c29.475-29.475,70.598-40.195,108.552-32.173   c8.021,37.954-2.698,79.077-32.173,108.552c-29.475,29.475-70.598,40.195-108.552,32.173   C328.526,423.834,339.246,382.711,368.721,353.237z M134.727,321.063c37.954-8.021,79.077,2.698,108.552,32.173   c29.475,29.475,40.195,70.598,32.173,108.552c-37.954,8.021-79.077-2.698-108.552-32.173   C137.425,400.139,126.706,359.017,134.727,321.063z"
   id="path109"
   style="fill:#2a7824;fill-opacity:1" />
</g>
<g
   id="g113">
</g>
<g
   id="g115">
</g>
<g
   id="g117">
</g>
<g
   id="g119">
</g>
<g
   id="g121">
</g>
<g
   id="g123">
</g>
<g
   id="g125">
</g>
<g
   id="g127">
</g>
<g
   id="g129">
</g>
<g
   id="g131">
</g>
<g
   id="g133">
</g>
<g
   id="g135">
</g>
<g
   id="g137">
</g>
<g
   id="g139">
</g>
<g
   id="g141">
</g>
</svg>